Namdhinggo-ExtraBold.ufo
<glyph name="ampersand" format="2">
  <advance width="1345"/>
  <unicode hex="0026"/>
  <outline>
    <contour>
      <point x="1346" y="708" type="curve"/>
      <point x="1315" y="751" type="line"/>
      <point x="852" y="751" type="line"/>
      <point x="826" y="742"/>
      <point x="777" y="691"/>
      <point x="764" y="674" type="curve"/>
      <point x="794" y="639" type="line"/>
      <point x="867" y="639"/>
      <point x="934" y="581"/>
      <point x="934" y="475" type="curve" smooth="yes"/>
      <point x="934" y="316"/>
      <point x="746" y="117"/>
      <point x="551" y="117" type="curve" smooth="yes"/>
      <point x="449" y="117"/>
      <point x="330" y="176"/>
      <point x="330" y="353" type="curve" smooth="yes"/>
      <point x="330" y="499"/>
      <point x="380" y="614"/>
      <point x="607" y="759" type="curve" smooth="yes"/>
      <point x="754" y="852"/>
      <point x="916" y="1007"/>
      <point x="916" y="1139" type="curve" smooth="yes"/>
      <point x="916" y="1261"/>
      <point x="828" y="1372"/>
      <point x="629" y="1372" type="curve" smooth="yes"/>
      <point x="414" y="1372"/>
      <point x="241" y="1218"/>
      <point x="241" y="1015" type="curve" smooth="yes"/>
      <point x="241" y="560"/>
      <point x="878" y="-28"/>
      <point x="1004" y="-28" type="curve" smooth="yes"/>
      <point x="1031" y="-28"/>
      <point x="1194" y="13"/>
      <point x="1301" y="61" type="curve"/>
      <point x="1284" y="140" type="line"/>
      <point x="1224" y="126"/>
      <point x="1145" y="136"/>
      <point x="1076" y="195" type="curve" smooth="yes"/>
      <point x="847" y="388"/>
      <point x="482" y="786"/>
      <point x="482" y="1069" type="curve" smooth="yes"/>
      <point x="482" y="1168"/>
      <point x="508" y="1242"/>
      <point x="570" y="1242" type="curve" smooth="yes"/>
      <point x="617" y="1242"/>
      <point x="664" y="1196"/>
      <point x="664" y="1108" type="curve" smooth="yes"/>
      <point x="664" y="1025"/>
      <point x="627" y="920"/>
      <point x="512" y="856" type="curve" smooth="yes"/>
      <point x="188" y="675"/>
      <point x="56" y="503"/>
      <point x="56" y="333" type="curve" smooth="yes"/>
      <point x="56" y="96"/>
      <point x="213" y="-28"/>
      <point x="485" y="-28" type="curve" smooth="yes"/>
      <point x="840" y="-28"/>
      <point x="1123" y="294"/>
      <point x="1123" y="514" type="curve" smooth="yes"/>
      <point x="1123" y="552"/>
      <point x="1118" y="591"/>
      <point x="1092" y="624" type="curve"/>
      <point x="1134" y="622"/>
      <point x="1188" y="598"/>
      <point x="1234" y="576" type="curve"/>
      <point x="1265" y="598"/>
      <point x="1315" y="669"/>
    </contour>
  </outline>
</glyph>
<glyph name="parenleft" format="2">
  <advance width="671"/>
  <unicode hex="0028"/>
  <outline>
    <contour>
      <point x="632" y="-290" type="line"/>
      <point x="433" y="-49"/>
      <point x="345" y="240"/>
      <point x="345" y="561" type="curve" smooth="yes"/>
      <point x="345" y="841"/>
      <point x="418" y="1157"/>
      <point x="622" y="1353" type="curve"/>
      <point x="577" y="1413" type="line"/>
      <point x="267" y="1225"/>
      <point x="106" y="865"/>
      <point x="106" y="534" type="curve" smooth="yes"/>
      <point x="106" y="174"/>
      <point x="244" y="-148"/>
      <point x="584" y="-357" type="curve"/>
    </contour>
  </outline>
</glyph>
<glyph name="parenright" format="2">
  <advance width="671"/>
  <unicode hex="0029"/>
  <outline>
    <contour>
      <point x="39" y="-290" type="curve"/>
      <point x="87" y="-357" type="line"/>
      <point x="427" y="-148"/>
      <point x="565" y="174"/>
      <point x="565" y="534" type="curve" smooth="yes"/>
      <point x="565" y="865"/>
      <point x="404" y="1225"/>
      <point x="94" y="1413" type="curve"/>
      <point x="49" y="1353" type="line"/>
      <point x="253" y="1157"/>
      <point x="326" y="841"/>
      <point x="326" y="561" type="curve" smooth="yes"/>
      <point x="326" y="240"/>
      <point x="238" y="-49"/>
    </contour>
  </outline>
</glyph>
<glyph name="asterisk" format="2">
  <advance width="847"/>
  <unicode hex="002A"/>
  <outline>
    <contour>
      <point x="473" y="1164" type="line"/>
      <point x="528" y="1438" type="line"/>
      <point x="484" y="1477" type="line"/>
      <point x="457" y="1470"/>
      <point x="346" y="1427"/>
      <point x="319" y="1412" type="curve"/>
      <point x="369" y="1163" type="line"/>
      <point x="162" y="1346" type="line"/>
      <point x="108" y="1328" type="line"/>
      <point x="99" y="1301"/>
      <point x="82" y="1182"/>
      <point x="80" y="1151" type="curve"/>
      <point x="320" y="1071" type="line"/>
      <point x="58" y="981" type="line"/>
      <point x="47" y="924" type="line"/>
      <point x="66" y="903"/>
      <point x="159" y="828"/>
      <point x="185" y="812" type="curve"/>
      <point x="373" y="981" type="line"/>
      <point x="320" y="708" type="line"/>
      <point x="363" y="669" type="line"/>
      <point x="390" y="675"/>
      <point x="501" y="719"/>
      <point x="528" y="733" type="curve"/>
      <point x="478" y="982" type="line"/>
      <point x="685" y="799" type="line"/>
      <point x="739" y="817" type="line"/>
      <point x="748" y="845"/>
      <point x="766" y="964"/>
      <point x="767" y="994" type="curve"/>
      <point x="528" y="1075" type="line"/>
      <point x="789" y="1165" type="line"/>
      <point x="800" y="1221" type="line"/>
      <point x="781" y="1242"/>
      <point x="688" y="1318"/>
      <point x="662" y="1334" type="curve"/>
    </contour>
  </outline>
</glyph>
<glyph name="period" format="2">
  <advance width="503"/>
  <unicode hex="002E"/>
  <outline>
    <contour>
      <point x="404" y="102" type="curve" smooth="yes"/>
      <point x="404" y="183"/>
      <point x="340" y="215"/>
      <point x="285" y="215" type="curve" smooth="yes"/>
      <point x="240" y="215"/>
      <point x="196" y="199"/>
      <point x="167" y="170" type="curve" smooth="yes"/>
      <point x="144" y="147"/>
      <point x="130" y="116"/>
      <point x="130" y="77" type="curve" smooth="yes"/>
      <point x="130" y="-4"/>
      <point x="192" y="-35"/>
      <point x="255" y="-35" type="curve" smooth="yes"/>
      <point x="304" y="-35"/>
      <point x="344" y="-19"/>
      <point x="372" y="13" type="curve" smooth="yes"/>
      <point x="392" y="35"/>
      <point x="404" y="65"/>
    </contour>
  </outline>
</glyph>
<glyph name="slash" format="2">
  <advance width="908"/>
  <unicode hex="002F"/>
  <outline>
    <contour>
      <point x="821" y="1413" type="line"/>
      <point x="776" y="1401"/>
      <point x="687" y="1376"/>
      <point x="659" y="1359" type="curve"/>
      <point x="44" y="-265" type="line"/>
      <point x="85" y="-295" type="line"/>
      <point x="213" y="-258"/>
      <point x="240" y="-243"/>
      <point x="255" y="-230" type="curve"/>
      <point x="864" y="1383" type="line"/>
    </contour>
  </outline>
</glyph>
<glyph name="five" format="2">
  <advance width="1044"/>
  <unicode hex="0035"/>
  <anchor x="523" y="-100" name="L"/>
  <anchor x="523" y="1370" name="U"/>
  <outline>
    <contour>
      <point x="928" y="410" type="curve"/>
      <point x="928" y="606"/>
      <point x="793" y="796"/>
      <point x="522" y="796" type="curve" smooth="yes"/>
      <point x="436" y="796"/>
      <point x="362" y="781"/>
      <point x="302" y="754" type="curve"/>
      <point x="314" y="813"/>
      <point x="335" y="939"/>
      <point x="339" y="1017" type="curve"/>
      <point x="776" y="1017" type="line"/>
      <point x="807" y="1040"/>
      <point x="885" y="1143"/>
      <point x="914" y="1186" type="curve"/>
      <point x="877" y="1223" type="line"/>
      <point x="877" y="1223"/>
      <point x="832" y="1205"/>
      <point x="756" y="1205" type="curve" smooth="yes"/>
      <point x="221" y="1205" type="line"/>
      <point x="213" y="1064"/>
      <point x="164" y="735"/>
      <point x="139" y="590" type="curve"/>
      <point x="186" y="557" type="line"/>
      <point x="256" y="610"/>
      <point x="326" y="645"/>
      <point x="438" y="645" type="curve" smooth="yes"/>
      <point x="579" y="645"/>
      <point x="678" y="549"/>
      <point x="678" y="367" type="curve" smooth="yes"/>
      <point x="678" y="215"/>
      <point x="582" y="103"/>
      <point x="453" y="103" type="curve" smooth="yes"/>
      <point x="377" y="103"/>
      <point x="272" y="125"/>
      <point x="131" y="223" type="curve"/>
      <point x="80" y="131" type="line"/>
      <point x="195" y="24"/>
      <point x="352" y="-30"/>
      <point x="475" y="-30" type="curve" smooth="yes"/>
      <point x="789" y="-30"/>
      <point x="928" y="178"/>
    </contour>
  </outline>
</glyph>
<glyph name="six" format="2">
  <advance width="1044"/>
  <unicode hex="0036"/>
  <anchor x="521" y="-100" name="L"/>
  <anchor x="521" y="1370" name="U"/>
  <outline>
    <contour>
      <point x="980" y="412" type="curve"/>
      <point x="980" y="631"/>
      <point x="843" y="786"/>
      <point x="615" y="786" type="curve" smooth="yes"/>
      <point x="515" y="786"/>
      <point x="371" y="712"/>
      <point x="266" y="572" type="curve"/>
      <point x="288" y="442" type="line"/>
      <point x="366" y="564"/>
      <point x="472" y="644"/>
      <point x="550" y="644" type="curve" smooth="yes"/>
      <point x="634" y="644"/>
      <point x="723" y="598"/>
      <point x="723" y="348" type="curve" smooth="yes"/>
      <point x="723" y="225"/>
      <point x="691" y="100"/>
      <point x="578" y="100" type="curve" smooth="yes"/>
      <point x="456" y="100"/>
      <point x="361" y="221"/>
      <point x="361" y="537" type="curve" smooth="yes"/>
      <point x="361" y="811"/>
      <point x="487" y="1073"/>
      <point x="881" y="1157" type="curve"/>
      <point x="854" y="1249" type="line"/>
      <point x="354" y="1180"/>
      <point x="94" y="850"/>
      <point x="94" y="473" type="curve" smooth="yes"/>
      <point x="94" y="172"/>
      <point x="299" y="-30"/>
      <point x="556" y="-30" type="curve" smooth="yes"/>
      <point x="835" y="-30"/>
      <point x="980" y="225"/>
    </contour>
  </outline>
</glyph>
<glyph name="greater" format="2">
  <advance width="817"/>
  <unicode hex="003E"/>
  <outline>
    <contour>
      <point x="744" y="601" type="line"/>
      <point x="143" y="816" type="line"/>
      <point x="107" y="794"/>
      <point x="69" y="752"/>
      <point x="44" y="728" type="curve"/>
      <point x="67" y="687" type="line"/>
      <point x="528" y="523" type="line"/>
      <point x="77" y="360" type="line"/>
      <point x="70" y="338"/>
      <point x="50" y="263"/>
      <point x="44" y="238" type="curve"/>
      <point x="74" y="208" type="line"/>
      <point x="739" y="448" type="line"/>
      <point x="750" y="478"/>
      <point x="766" y="528"/>
      <point x="774" y="561" type="curve"/>
    </contour>
  </outline>
</glyph>
<glyph name="F" format="2">
  <advance width="1011"/>
  <unicode hex="0046"/>
  <anchor x="495" y="-97" name="L"/>
  <anchor x="495" y="1323" name="U"/>
  <outline>
    <contour>
      <point x="952" y="1183" type="curve"/>
      <point x="913" y="1217" type="line"/>
      <point x="413" y="1217" type="line"/>
      <point x="385" y="1092" type="line"/>
      <point x="753" y="1092" type="line" smooth="yes"/>
      <point x="802" y="1092"/>
      <point x="828" y="1017"/>
      <point x="832" y="898" type="curve"/>
      <point x="915" y="898" type="line"/>
      <point x="930" y="948"/>
      <point x="950" y="1118"/>
    </contour>
    <contour>
      <point x="819" y="673" type="curve"/>
      <point x="782" y="710" type="line"/>
      <point x="366" y="710" type="line"/>
      <point x="227" y="600" type="line"/>
      <point x="541" y="600" type="line" smooth="yes"/>
      <point x="647" y="600"/>
      <point x="692" y="584"/>
      <point x="730" y="547" type="curve"/>
      <point x="756" y="567"/>
      <point x="796" y="628"/>
    </contour>
    <contour>
      <point x="38" y="0" type="line"/>
      <point x="592" y="0" type="line"/>
      <point x="592" y="80" type="line"/>
      <point x="467" y="104"/>
      <point x="435" y="124"/>
      <point x="435" y="139" type="curve" smooth="yes"/>
      <point x="435" y="1098" type="line" smooth="yes"/>
      <point x="435" y="1116"/>
      <point x="498" y="1128"/>
      <point x="573" y="1137" type="curve"/>
      <point x="573" y="1217" type="line"/>
      <point x="38" y="1217" type="line"/>
      <point x="38" y="1137" type="line"/>
      <point x="130" y="1119"/>
      <point x="167" y="1093"/>
      <point x="167" y="1077" type="curve" smooth="yes"/>
      <point x="167" y="139" type="line" smooth="yes"/>
      <point x="167" y="122"/>
      <point x="124" y="98"/>
      <point x="38" y="80" type="curve"/>
    </contour>
  </outline>
</glyph>
<glyph name="J" format="2">
  <advance width="673"/>
  <unicode hex="004A"/>
  <anchor x="346" y="-580" name="L"/>
  <anchor x="346" y="1323" name="U"/>
  <outline>
    <contour>
      <point x="616" y="1137" type="curve"/>
      <point x="616" y="1217" type="line"/>
      <point x="43" y="1217" type="line"/>
      <point x="43" y="1137" type="line"/>
      <point x="196" y="1115"/>
      <point x="220" y="1093"/>
      <point x="220" y="1077" type="curve" smooth="yes"/>
      <point x="220" y="99" type="line" smooth="yes"/>
      <point x="220" y="-203"/>
      <point x="157" y="-239"/>
      <point x="90" y="-239" type="curve" smooth="yes"/>
      <point x="41" y="-239"/>
      <point x="-29" y="-212"/>
      <point x="-99" y="-145" type="curve"/>
      <point x="-135" y="-158"/>
      <point x="-277" y="-288"/>
      <point x="-277" y="-319" type="curve" smooth="yes"/>
      <point x="-277" y="-351"/>
      <point x="-149" y="-415"/>
      <point x="-24" y="-415" type="curve" smooth="yes"/>
      <point x="74" y="-415"/>
      <point x="181" y="-363"/>
      <point x="249" y="-307" type="curve" smooth="yes"/>
      <point x="350" y="-225"/>
      <point x="487" y="-107"/>
      <point x="487" y="169" type="curve" smooth="yes"/>
      <point x="487" y="1077" type="line" smooth="yes"/>
      <point x="487" y="1095"/>
      <point x="530" y="1119"/>
    </contour>
  </outline>
</glyph>
<glyph name="K" format="2">
  <advance width="1235"/>
  <unicode hex="004B"/>
  <anchor x="306" y="0" name="H"/>
  <anchor x="637" y="-97" name="L"/>
  <anchor x="613" y="1323" name="U"/>
  <outline>
    <contour>
      <point x="1175" y="1137" type="curve"/>
      <point x="1175" y="1217" type="line"/>
      <point x="735" y="1217" type="line"/>
      <point x="735" y="1137" type="line"/>
      <point x="836" y="1128"/>
      <point x="836" y="1121"/>
      <point x="777" y="1051" type="curve" smooth="yes"/>
      <point x="417" y="621" type="line"/>
      <point x="593" y="621" type="line"/>
      <point x="1031" y="1077" type="line" smooth="yes"/>
      <point x="1072" y="1120"/>
      <point x="1093" y="1126"/>
    </contour>
    <contour>
      <point x="1236" y="55" type="curve"/>
      <point x="1229" y="135" type="line"/>
      <point x="1163" y="128"/>
      <point x="1124" y="128"/>
      <point x="1084" y="171" type="curve" smooth="yes"/>
      <point x="585" y="696" type="line"/>
      <point x="417" y="621" type="line"/>
      <point x="882" y="28" type="line" smooth="yes"/>
      <point x="908" y="-4"/>
      <point x="935" y="-14"/>
      <point x="972" y="-14" type="curve" smooth="yes"/>
      <point x="1033" y="-14"/>
      <point x="1161" y="31"/>
    </contour>
    <contour>
      <point x="38" y="0" type="line"/>
      <point x="563" y="0" type="line"/>
      <point x="563" y="80" type="line"/>
      <point x="471" y="98"/>
      <point x="435" y="124"/>
      <point x="435" y="139" type="curve" smooth="yes"/>
      <point x="435" y="1077" type="line" smooth="yes"/>
      <point x="435" y="1095"/>
      <point x="478" y="1119"/>
      <point x="563" y="1137" type="curve"/>
      <point x="563" y="1217" type="line"/>
      <point x="38" y="1217" type="line"/>
      <point x="38" y="1137" type="line"/>
      <point x="130" y="1119"/>
      <point x="167" y="1093"/>
      <point x="167" y="1077" type="curve" smooth="yes"/>
      <point x="167" y="139" type="line" smooth="yes"/>
      <point x="167" y="122"/>
      <point x="124" y="98"/>
      <point x="38" y="80" type="curve"/>
    </contour>
  </outline>
</glyph>
<glyph name="M" format="2">
  <advance width="1681"/>
  <unicode hex="004D"/>
  <anchor x="1356" y="0" name="H"/>
  <anchor x="831" y="-97" name="L"/>
  <anchor x="831" y="1323" name="U"/>
  <outline>
    <contour>
      <point x="1093" y="0" type="line"/>
      <point x="1614" y="0" type="line"/>
      <point x="1614" y="80" type="line"/>
      <point x="1522" y="98"/>
      <point x="1475" y="124"/>
      <point x="1475" y="139" type="curve" smooth="yes"/>
      <point x="1466" y="1134" type="line"/>
      <point x="1222" y="1079" type="line"/>
      <point x="1232" y="139" type="line" smooth="yes"/>
      <point x="1232" y="122"/>
      <point x="1179" y="98"/>
      <point x="1093" y="80" type="curve"/>
    </contour>
    <contour>
      <point x="1585" y="1137" type="curve"/>
      <point x="1585" y="1217" type="line"/>
      <point x="1245" y="1217" type="line" smooth="yes"/>
      <point x="1221" y="1217"/>
      <point x="1208" y="1211"/>
      <point x="1175" y="1136" type="curve" smooth="yes"/>
      <point x="776" y="253" type="line" smooth="yes"/>
      <point x="758" y="213"/>
      <point x="791" y="162"/>
      <point x="820" y="0" type="curve"/>
      <point x="824" y="0" type="line"/>
      <point x="1261" y="966" type="line" smooth="yes"/>
      <point x="1305" y="1066"/>
      <point x="1499" y="1137"/>
    </contour>
    <contour>
      <point x="862" y="255" type="curve" smooth="yes"/>
      <point x="478" y="1136" type="line" smooth="yes"/>
      <point x="447" y="1206"/>
      <point x="433" y="1217"/>
      <point x="407" y="1217" type="curve" smooth="yes"/>
      <point x="57" y="1217" type="line"/>
      <point x="57" y="1137" type="line"/>
      <point x="127" y="1137"/>
      <point x="233" y="1112"/>
      <point x="284" y="996" type="curve" smooth="yes"/>
      <point x="720" y="0" type="line"/>
      <point x="820" y="0" type="line"/>
      <point x="852" y="162"/>
      <point x="880" y="215"/>
    </contour>
    <contour>
      <point x="48" y="0" type="line"/>
      <point x="454" y="0" type="line"/>
      <point x="454" y="80" type="line"/>
      <point x="362" y="98"/>
      <point x="325" y="124"/>
      <point x="325" y="139" type="curve" smooth="yes"/>
      <point x="335" y="1141" type="line"/>
      <point x="186" y="1117" type="line"/>
      <point x="177" y="139" type="line" smooth="yes"/>
      <point x="177" y="122"/>
      <point x="135" y="98"/>
      <point x="48" y="80" type="curve"/>
    </contour>
  </outline>
</glyph>
<glyph name="O" format="2">
  <advance width="1230"/>
  <unicode hex="004F"/>
  <anchor x="585" y="0" name="H"/>
  <anchor x="617" y="-97" name="L"/>
  <anchor x="680" y="0" name="O"/>
  <anchor x="1199" y="1063" name="R"/>
  <anchor x="617" y="1323" name="U"/>
  <outline>
    <contour>
      <point x="578" y="-29" type="curve" smooth="yes"/>
      <point x="895" y="-29"/>
      <point x="1163" y="275"/>
      <point x="1163" y="625" type="curve" smooth="yes"/>
      <point x="1163" y="940"/>
      <point x="977" y="1246"/>
      <point x="633" y="1246" type="curve" smooth="yes"/>
      <point x="286" y="1246"/>
      <point x="48" y="942"/>
      <point x="48" y="591" type="curve" smooth="yes"/>
      <point x="48" y="267"/>
      <point x="251" y="-29"/>
    </contour>
    <contour>
      <point x="625" y="106" type="curve" smooth="yes"/>
      <point x="457" y="106"/>
      <point x="320" y="330"/>
      <point x="320" y="619" type="curve" smooth="yes"/>
      <point x="320" y="934"/>
      <point x="408" y="1116"/>
      <point x="577" y="1116" type="curve" smooth="yes"/>
      <point x="765" y="1116"/>
      <point x="891" y="874"/>
      <point x="891" y="608" type="curve" smooth="yes"/>
      <point x="891" y="267"/>
      <point x="778" y="106"/>
    </contour>
  </outline>
</glyph>
<glyph name="P" format="2">
  <advance width="1137"/>
  <unicode hex="0050"/>
  <anchor x="548" y="-97" name="L"/>
  <anchor x="548" y="1323" name="U"/>
  <outline>
    <contour>
      <point x="1072" y="904" type="curve" smooth="yes"/>
      <point x="1072" y="1125"/>
      <point x="866" y="1246"/>
      <point x="563" y="1246" type="curve" smooth="yes"/>
      <point x="390" y="1246"/>
      <point x="167" y="1222"/>
      <point x="25" y="1188" type="curve"/>
      <point x="38" y="1090" type="line"/>
      <point x="161" y="1112"/>
      <point x="375" y="1136"/>
      <point x="509" y="1136" type="curve" smooth="yes"/>
      <point x="687" y="1136"/>
      <point x="799" y="1037"/>
      <point x="799" y="865" type="curve" smooth="yes"/>
      <point x="799" y="683"/>
      <point x="703" y="609"/>
      <point x="595" y="609" type="curve" smooth="yes"/>
      <point x="550" y="609"/>
      <point x="520" y="613"/>
      <point x="467" y="638" type="curve"/>
      <point x="499" y="526" type="line"/>
      <point x="541" y="507"/>
      <point x="604" y="497"/>
      <point x="662" y="497" type="curve" smooth="yes"/>
      <point x="838" y="497"/>
      <point x="1072" y="637"/>
    </contour>
    <contour>
      <point x="38" y="0" type="line"/>
      <point x="592" y="0" type="line"/>
      <point x="592" y="80" type="line"/>
      <point x="459" y="102"/>
      <point x="435" y="124"/>
      <point x="435" y="139" type="curve" smooth="yes"/>
      <point x="435" y="1140" type="line"/>
      <point x="167" y="1140" type="line"/>
      <point x="167" y="139" type="line" smooth="yes"/>
      <point x="167" y="122"/>
      <point x="124" y="98"/>
      <point x="38" y="80" type="curve"/>
    </contour>
  </outline>
</glyph>
<glyph name="R" format="2">
  <advance width="1211"/>
  <unicode hex="0052"/>
  <anchor x="306" y="0" name="H"/>
  <anchor x="546" y="-97" name="L"/>
  <anchor x="546" y="1323" name="U"/>
  <outline>
    <contour>
      <point x="1019" y="953" type="curve" smooth="yes"/>
      <point x="1019" y="1120"/>
      <point x="886" y="1246"/>
      <point x="524" y="1246" type="curve" smooth="yes"/>
      <point x="337" y="1246"/>
      <point x="163" y="1218"/>
      <point x="25" y="1188" type="curve"/>
      <point x="38" y="1090" type="line"/>
      <point x="169" y="1110"/>
      <point x="368" y="1136"/>
      <point x="479" y="1136" type="curve" smooth="yes"/>
      <point x="697" y="1136"/>
      <point x="747" y="1036"/>
      <point x="747" y="923" type="curve" smooth="yes"/>
      <point x="747" y="773"/>
      <point x="682" y="680"/>
      <point x="520" y="680" type="curve" smooth="yes"/>
      <point x="487" y="680"/>
      <point x="462" y="682"/>
      <point x="417" y="690" type="curve"/>
      <point x="423" y="574" type="line"/>
      <point x="462" y="564"/>
      <point x="500" y="560"/>
      <point x="536" y="560" type="curve" smooth="yes"/>
      <point x="801" y="560"/>
      <point x="1019" y="706"/>
    </contour>
    <contour>
      <point x="1221" y="55" type="curve"/>
      <point x="1206" y="135" type="line"/>
      <point x="1120" y="128"/>
      <point x="1099" y="138"/>
      <point x="1058" y="192" type="curve" smooth="yes"/>
      <point x="710" y="655" type="line"/>
      <point x="553" y="591" type="line"/>
      <point x="838" y="40" type="line"/>
      <point x="855" y="11"/>
      <point x="895" y="-14"/>
      <point x="931" y="-14" type="curve" smooth="yes"/>
      <point x="981" y="-14"/>
      <point x="1137" y="27"/>
    </contour>
    <contour>
      <point x="38" y="0" type="line"/>
      <point x="563" y="0" type="line"/>
      <point x="563" y="80" type="line"/>
      <point x="471" y="98"/>
      <point x="435" y="124"/>
      <point x="435" y="139" type="curve" smooth="yes"/>
      <point x="435" y="1151" type="line"/>
      <point x="167" y="1151" type="line"/>
      <point x="167" y="139" type="line" smooth="yes"/>
      <point x="167" y="122"/>
      <point x="124" y="98"/>
      <point x="38" y="80" type="curve"/>
    </contour>
  </outline>
</glyph>
<glyph name="X" format="2">
  <advance width="1241"/>
  <unicode hex="0058"/>
  <anchor x="621" y="-97" name="L"/>
  <anchor x="621" y="1323" name="U"/>
  <outline>
    <contour>
      <point x="1175" y="1137" type="curve"/>
      <point x="1175" y="1217" type="line"/>
      <point x="742" y="1217" type="line"/>
      <point x="742" y="1137" type="line"/>
      <point x="856" y="1128"/>
      <point x="865" y="1115"/>
      <point x="829" y="1056" type="curve" smooth="yes"/>
      <point x="556" y="619" type="line"/>
      <point x="628" y="472" type="line"/>
      <point x="1000" y="1056" type="line" smooth="yes"/>
      <point x="1034" y="1110"/>
      <point x="1082" y="1126"/>
    </contour>
    <contour>
      <point x="686" y="0" type="line"/>
      <point x="1221" y="0" type="line"/>
      <point x="1221" y="80" type="line"/>
      <point x="1147" y="90"/>
      <point x="1117" y="106"/>
      <point x="1080" y="161" type="curve" smooth="yes"/>
      <point x="473" y="1056" type="line" smooth="yes"/>
      <point x="435" y="1112"/>
      <point x="467" y="1126"/>
      <point x="575" y="1137" type="curve"/>
      <point x="575" y="1217" type="line"/>
      <point x="30" y="1217" type="line"/>
      <point x="30" y="1137" type="line"/>
      <point x="114" y="1124"/>
      <point x="139" y="1113"/>
      <point x="179" y="1056" type="curve" smooth="yes"/>
      <point x="786" y="161" type="line" smooth="yes"/>
      <point x="821" y="110"/>
      <point x="797" y="92"/>
      <point x="686" y="80" type="curve"/>
    </contour>
    <contour>
      <point x="365" y="161" type="curve" smooth="yes"/>
      <point x="631" y="558" type="line"/>
      <point x="569" y="726" type="line"/>
      <point x="194" y="161" type="line" smooth="yes"/>
      <point x="159" y="110"/>
      <point x="102" y="86"/>
      <point x="20" y="80" type="curve"/>
      <point x="20" y="0" type="line"/>
      <point x="450" y="0" type="line"/>
      <point x="450" y="80" type="line"/>
      <point x="332" y="88"/>
      <point x="328" y="105"/>
    </contour>
  </outline>
</glyph>
<glyph name="b" format="2">
  <advance width="1049"/>
  <unicode hex="0062"/>
  <anchor x="491" y="0" name="H"/>
  <anchor x="491" y="-95" name="L"/>
  <anchor x="1049" y="851" name="R"/>
  <anchor x="547" y="1533" name="U"/>
  <outline>
    <contour>
      <point x="984" y="484" type="curve" smooth="yes"/>
      <point x="984" y="742"/>
      <point x="870" y="908"/>
      <point x="681" y="908" type="curve" smooth="yes"/>
      <point x="610" y="908"/>
      <point x="490" y="877"/>
      <point x="365" y="782" type="curve"/>
      <point x="365" y="1425" type="line"/>
      <point x="351" y="1439"/>
      <point x="337" y="1452"/>
      <point x="321" y="1466" type="curve"/>
      <point x="222" y="1428"/>
      <point x="129" y="1410"/>
      <point x="0" y="1391" type="curve"/>
      <point x="0" y="1315" type="line"/>
      <point x="102" y="1303"/>
      <point x="112" y="1301"/>
      <point x="112" y="1188" type="curve" smooth="yes"/>
      <point x="112" y="91" type="line"/>
      <point x="247" y="25"/>
      <point x="401" y="-28"/>
      <point x="477" y="-28" type="curve" smooth="yes"/>
      <point x="706" y="-28"/>
      <point x="984" y="265"/>
    </contour>
    <contour>
      <point x="750" y="395" type="curve" smooth="yes"/>
      <point x="750" y="250"/>
      <point x="692" y="142"/>
      <point x="569" y="142" type="curve" smooth="yes"/>
      <point x="534" y="142"/>
      <point x="465" y="164"/>
      <point x="365" y="211" type="curve"/>
      <point x="365" y="662" type="line"/>
      <point x="452" y="715"/>
      <point x="506" y="733"/>
      <point x="550" y="733" type="curve" smooth="yes"/>
      <point x="662" y="733"/>
      <point x="750" y="647"/>
    </contour>
  </outline>
</glyph>
<glyph name="l" format="2">
  <advance width="594"/>
  <unicode hex="006C"/>
  <anchor x="305" y="0" name="H"/>
  <anchor x="305" y="-95" name="L"/>
  <anchor x="576" y="851" name="R"/>
  <anchor x="305" y="1599" name="U"/>
  <outline>
    <contour>
      <point x="47" y="0" type="line"/>
      <point x="562" y="0" type="line"/>
      <point x="562" y="79" type="line"/>
      <point x="460" y="96"/>
      <point x="431" y="117"/>
      <point x="431" y="136" type="curve" smooth="yes"/>
      <point x="431" y="1425" type="line"/>
      <point x="388" y="1466" type="line"/>
      <point x="283" y="1426"/>
      <point x="193" y="1409"/>
      <point x="56" y="1391" type="curve"/>
      <point x="56" y="1315" type="line"/>
      <point x="161" y="1303"/>
      <point x="178" y="1300"/>
      <point x="178" y="1188" type="curve" smooth="yes"/>
      <point x="178" y="136" type="line" smooth="yes"/>
      <point x="178" y="115"/>
      <point x="155" y="97"/>
      <point x="47" y="79" type="curve"/>
    </contour>
  </outline>
</glyph>
<glyph name="n" format="2">
  <advance width="1133"/>
  <unicode hex="006E"/>
  <anchor x="867" y="0" name="H"/>
  <anchor x="578" y="-95" name="L"/>
  <anchor x="578" y="993" name="U"/>
  <outline>
    <contour>
      <point x="618" y="0" type="line"/>
      <point x="1115" y="0" type="line"/>
      <point x="1115" y="79" type="line"/>
      <point x="1017" y="104"/>
      <point x="993" y="119"/>
      <point x="993" y="136" type="curve" smooth="yes"/>
      <point x="993" y="654" type="line" smooth="yes"/>
      <point x="993" y="843"/>
      <point x="894" y="908"/>
      <point x="786" y="908" type="curve" smooth="yes"/>
      <point x="689" y="908"/>
      <point x="570" y="874"/>
      <point x="413" y="762" type="curve"/>
      <point x="403" y="866" type="line"/>
      <point x="361" y="908" type="line"/>
      <point x="263" y="873"/>
      <point x="173" y="855"/>
      <point x="42" y="842" type="curve"/>
      <point x="42" y="766" type="line"/>
      <point x="163" y="752"/>
      <point x="164" y="743"/>
      <point x="164" y="644" type="curve" smooth="yes"/>
      <point x="164" y="136" type="line" smooth="yes"/>
      <point x="164" y="115"/>
      <point x="125" y="100"/>
      <point x="42" y="79" type="curve"/>
      <point x="42" y="0" type="line"/>
      <point x="539" y="0" type="line"/>
      <point x="539" y="79" type="line"/>
      <point x="458" y="96"/>
      <point x="417" y="117"/>
      <point x="417" y="136" type="curve" smooth="yes"/>
      <point x="417" y="633" type="line"/>
      <point x="538" y="706"/>
      <point x="595" y="719"/>
      <point x="648" y="719" type="curve" smooth="yes"/>
      <point x="718" y="719"/>
      <point x="740" y="676"/>
      <point x="740" y="542" type="curve" smooth="yes"/>
      <point x="740" y="136" type="line" smooth="yes"/>
      <point x="740" y="119"/>
      <point x="708" y="102"/>
      <point x="618" y="79" type="curve"/>
    </contour>
  </outline>
</glyph>
<glyph name="p" format="2">
  <advance width="1091"/>
  <unicode hex="0070"/>
  <anchor x="293" y="-455" name="H"/>
  <anchor x="725" y="-95" name="L"/>
  <anchor x="1092" y="851" name="R"/>
  <anchor x="538" y="993" name="U"/>
  <outline>
    <contour>
      <point x="668" y="-28" type="curve" smooth="yes"/>
      <point x="813" y="-28"/>
      <point x="1035" y="218"/>
      <point x="1035" y="475" type="curve" smooth="yes"/>
      <point x="1035" y="780"/>
      <point x="883" y="908"/>
      <point x="712" y="908" type="curve" smooth="yes"/>
      <point x="641" y="908"/>
      <point x="555" y="886"/>
      <point x="411" y="773" type="curve"/>
      <point x="403" y="866" type="line"/>
      <point x="361" y="908" type="line"/>
      <point x="260" y="873"/>
      <point x="203" y="861"/>
      <point x="42" y="842" type="curve"/>
      <point x="42" y="766" type="line"/>
      <point x="161" y="761"/>
      <point x="164" y="739"/>
      <point x="164" y="644" type="curve" smooth="yes"/>
      <point x="164" y="-317" type="line" smooth="yes"/>
      <point x="164" y="-339"/>
      <point x="125" y="-356"/>
      <point x="42" y="-376" type="curve"/>
      <point x="42" y="-454" type="line"/>
      <point x="575" y="-454" type="line"/>
      <point x="575" y="-376" type="line"/>
      <point x="458" y="-358"/>
      <point x="417" y="-337"/>
      <point x="417" y="-317" type="curve" smooth="yes"/>
      <point x="417" y="74" type="line"/>
      <point x="533" y="-4"/>
      <point x="595" y="-28"/>
    </contour>
    <contour>
      <point x="584" y="733" type="curve" smooth="yes"/>
      <point x="686" y="733"/>
      <point x="796" y="652"/>
      <point x="796" y="403" type="curve" smooth="yes"/>
      <point x="796" y="236"/>
      <point x="741" y="142"/>
      <point x="657" y="142" type="curve" smooth="yes"/>
      <point x="599" y="142"/>
      <point x="557" y="145"/>
      <point x="417" y="220" type="curve"/>
      <point x="417" y="662" type="line"/>
      <point x="527" y="730"/>
      <point x="539" y="733"/>
    </contour>
  </outline>
</glyph>
<glyph name="x" format="2">
  <advance width="1011"/>
  <unicode hex="0078"/>
  <anchor x="783" y="0" name="H"/>
  <anchor x="504" y="-95" name="L"/>
  <anchor x="504" y="993" name="U"/>
  <outline>
    <contour>
      <point x="970" y="801" type="curve"/>
      <point x="970" y="880" type="line"/>
      <point x="613" y="880" type="line"/>
      <point x="613" y="801" type="line"/>
      <point x="690" y="794"/>
      <point x="701" y="782"/>
      <point x="654" y="723" type="curve" smooth="yes"/>
      <point x="459" y="476" type="line"/>
      <point x="556" y="403" type="line"/>
      <point x="805" y="721" type="line" smooth="yes"/>
      <point x="840" y="766"/>
      <point x="869" y="794"/>
    </contour>
    <contour>
      <point x="510" y="0" type="line"/>
      <point x="999" y="0" type="line"/>
      <point x="999" y="79" type="line"/>
      <point x="916" y="90"/>
      <point x="885" y="125"/>
      <point x="858" y="163" type="curve"/>
      <point x="462" y="723" type="line" smooth="yes"/>
      <point x="419" y="783"/>
      <point x="430" y="794"/>
      <point x="507" y="801" type="curve"/>
      <point x="507" y="880" type="line"/>
      <point x="20" y="880" type="line"/>
      <point x="20" y="801" type="line"/>
      <point x="112" y="794"/>
      <point x="137" y="766"/>
      <point x="170" y="721" type="curve" smooth="yes"/>
      <point x="570" y="157" type="line" smooth="yes"/>
      <point x="618" y="89"/>
      <point x="572" y="84"/>
      <point x="510" y="79" type="curve"/>
    </contour>
    <contour>
      <point x="310" y="157" type="curve" smooth="yes"/>
      <point x="515" y="415" type="line"/>
      <point x="421" y="491" type="line"/>
      <point x="162" y="163" type="line" smooth="yes"/>
      <point x="132" y="125"/>
      <point x="100" y="94"/>
      <point x="9" y="79" type="curve"/>
      <point x="9" y="0" type="line"/>
      <point x="374" y="0" type="line"/>
      <point x="374" y="79" type="line"/>
      <point x="315" y="84"/>
      <point x="259" y="92"/>
    </contour>
  </outline>
</glyph>
<glyph name="exclamdown" format="2">
  <advance width="619"/>
  <unicode hex="00A1"/>
  <outline>
    <contour>
      <point x="437" y="786" type="curve" smooth="yes"/>
      <point x="437" y="877"/>
      <point x="373" y="909"/>
      <point x="318" y="909" type="curve" smooth="yes"/>
      <point x="237" y="909"/>
      <point x="163" y="860"/>
      <point x="163" y="761" type="curve" smooth="yes"/>
      <point x="163" y="670"/>
      <point x="225" y="639"/>
      <point x="288" y="639" type="curve" smooth="yes"/>
      <point x="373" y="639"/>
      <point x="437" y="692"/>
    </contour>
    <contour>
      <point x="463" y="-399" type="curve"/>
      <point x="426" y="-128"/>
      <point x="384" y="184"/>
      <point x="360" y="505" type="curve"/>
      <point x="334" y="533" type="line"/>
      <point x="301" y="523"/>
      <point x="261" y="505"/>
      <point x="236" y="486" type="curve"/>
      <point x="218" y="150"/>
      <point x="181" y="-175"/>
      <point x="144" y="-501" type="curve"/>
      <point x="160" y="-514"/>
      <point x="174" y="-522"/>
      <point x="196" y="-534" type="curve"/>
      <point x="231" y="-517"/>
      <point x="413" y="-430"/>
    </contour>
  </outline>
</glyph>
<glyph name="sterling" format="2">
  <advance width="994"/>
  <unicode hex="00A3"/>
  <outline>
    <contour>
      <point x="919" y="1102" type="curve"/>
      <point x="803" y="1162"/>
      <point x="688" y="1168"/>
      <point x="622" y="1168" type="curve" smooth="yes"/>
      <point x="325" y="1168"/>
      <point x="138" y="903"/>
      <point x="166" y="547" type="curve" smooth="yes"/>
      <point x="193" y="200"/>
      <point x="161" y="146"/>
      <point x="41" y="46" type="curve"/>
      <point x="82" y="-28" type="line"/>
      <point x="265" y="90"/>
      <point x="738" y="-94"/>
      <point x="906" y="0" type="curve"/>
      <point x="915" y="37"/>
      <point x="944" y="198"/>
      <point x="954" y="307" type="curve"/>
      <point x="876" y="333" type="line"/>
      <point x="823" y="185"/>
      <point x="780" y="146"/>
      <point x="664" y="143" type="curve" smooth="yes"/>
      <point x="526" y="139"/>
      <point x="525" y="157"/>
      <point x="354" y="143" type="curve"/>
      <point x="437" y="260"/>
      <point x="467" y="386"/>
      <point x="448" y="563" type="curve" smooth="yes"/>
      <point x="400" y="1025"/>
      <point x="539" y="1046"/>
      <point x="609" y="1046" type="curve" smooth="yes"/>
      <point x="718" y="1046"/>
      <point x="783" y="941"/>
      <point x="801" y="785" type="curve"/>
      <point x="883" y="785" type="line"/>
      <point x="898" y="833"/>
      <point x="917" y="1038"/>
    </contour>
    <contour>
      <point x="707" y="488" type="line"/>
      <point x="750" y="581" type="line"/>
      <point x="717" y="612" type="line"/>
      <point x="71" y="612" type="line"/>
      <point x="64" y="592"/>
      <point x="37" y="540"/>
      <point x="32" y="521" type="curve"/>
      <point x="62" y="488" type="line"/>
    </contour>
  </outline>
</glyph>
<glyph name="currency" format="2">
  <advance width="994"/>
  <unicode hex="00A4"/>
  <outline>
    <contour>
      <point x="344" y="727" type="curve" smooth="yes"/>
      <point x="387" y="771"/>
      <point x="442" y="792"/>
      <point x="498" y="792" type="curve" smooth="yes"/>
      <point x="556" y="792"/>
      <point x="608" y="771"/>
      <point x="652" y="727" type="curve" smooth="yes"/>
      <point x="695" y="684"/>
      <point x="718" y="626"/>
      <point x="718" y="569" type="curve" smooth="yes"/>
      <point x="718" y="513"/>
      <point x="695" y="456"/>
      <point x="653" y="412" type="curve" smooth="yes"/>
      <point x="610" y="368"/>
      <point x="556" y="347"/>
      <point x="498" y="347" type="curve" smooth="yes"/>
      <point x="442" y="347"/>
      <point x="387" y="368"/>
      <point x="342" y="413" type="curve" smooth="yes"/>
      <point x="299" y="456"/>
      <point x="278" y="512"/>
      <point x="278" y="569" type="curve" smooth="yes"/>
      <point x="278" y="625"/>
      <point x="301" y="684"/>
    </contour>
    <contour>
      <point x="256" y="816" type="curve" smooth="yes"/>
      <point x="187" y="747"/>
      <point x="154" y="657"/>
      <point x="154" y="567" type="curve" smooth="yes"/>
      <point x="154" y="479"/>
      <point x="186" y="391"/>
      <point x="253" y="324" type="curve" smooth="yes"/>
      <point x="321" y="254"/>
      <point x="409" y="221"/>
      <point x="498" y="221" type="curve" smooth="yes"/>
      <point x="588" y="221"/>
      <point x="676" y="254"/>
      <point x="741" y="322" type="curve" smooth="yes"/>
      <point x="808" y="390"/>
      <point x="842" y="479"/>
      <point x="842" y="567" type="curve" smooth="yes"/>
      <point x="842" y="657"/>
      <point x="807" y="748"/>
      <point x="739" y="816" type="curve" smooth="yes"/>
      <point x="672" y="885"/>
      <point x="587" y="920"/>
      <point x="498" y="920" type="curve" smooth="yes"/>
      <point x="411" y="920"/>
      <point x="324" y="885"/>
    </contour>
    <contour>
      <point x="354" y="338" type="line"/>
      <point x="314" y="426" type="line"/>
      <point x="269" y="423" type="line"/>
      <point x="75" y="227" type="line"/>
      <point x="86" y="199"/>
      <point x="102" y="168"/>
      <point x="115" y="145" type="curve"/>
      <point x="158" y="142" type="line"/>
    </contour>
    <contour>
      <point x="261" y="724" type="line"/>
      <point x="348" y="764" type="line"/>
      <point x="345" y="810" type="line"/>
      <point x="160" y="996" type="line"/>
      <point x="132" y="984"/>
      <point x="102" y="969"/>
      <point x="79" y="955" type="curve"/>
      <point x="76" y="911" type="line"/>
    </contour>
    <contour>
      <point x="833" y="143" type="line"/>
      <point x="919" y="183" type="line"/>
      <point x="918" y="228" type="line"/>
      <point x="732" y="416" type="line"/>
      <point x="706" y="404"/>
      <point x="674" y="388"/>
      <point x="650" y="375" type="curve"/>
      <point x="647" y="330" type="line"/>
    </contour>
    <contour>
      <point x="916" y="909" type="line"/>
      <point x="877" y="996" type="line"/>
      <point x="833" y="995" type="line"/>
      <point x="637" y="797" type="line"/>
      <point x="649" y="771"/>
      <point x="665" y="739"/>
      <point x="678" y="715" type="curve"/>
      <point x="722" y="712" type="line"/>
    </contour>
  </outline>
</glyph>
<glyph name="copyright" format="2">
  <advance width="1412"/>
  <unicode hex="00A9"/>
  <outline>
    <contour>
      <point x="706" y="-28" type="curve" smooth="yes"/>
      <point x="1071" y="-28"/>
      <point x="1338" y="272"/>
      <point x="1338" y="640" type="curve" smooth="yes"/>
      <point x="1338" y="1009"/>
      <point x="1071" y="1307"/>
      <point x="706" y="1307" type="curve" smooth="yes"/>
      <point x="340" y="1307"/>
      <point x="75" y="1009"/>
      <point x="75" y="640" type="curve" smooth="yes"/>
      <point x="75" y="272"/>
      <point x="340" y="-28"/>
    </contour>
    <contour>
      <point x="685" y="226" type="curve" smooth="yes"/>
      <point x="785" y="226"/>
      <point x="877" y="248"/>
      <point x="1016" y="403" type="curve"/>
      <point x="969" y="461" type="line"/>
      <point x="859" y="382"/>
      <point x="818" y="373"/>
      <point x="759" y="373" type="curve" smooth="yes"/>
      <point x="647" y="373"/>
      <point x="547" y="481"/>
      <point x="547" y="647" type="curve" smooth="yes"/>
      <point x="547" y="849"/>
      <point x="617" y="942"/>
      <point x="729" y="942" type="curve" smooth="yes"/>
      <point x="823" y="942"/>
      <point x="855" y="848"/>
      <point x="873" y="745" type="curve"/>
      <point x="934" y="737" type="line"/>
      <point x="955" y="767"/>
      <point x="1008" y="947"/>
      <point x="1004" y="973" type="curve"/>
      <point x="968" y="1011"/>
      <point x="864" y="1046"/>
      <point x="785" y="1046" type="curve" smooth="yes"/>
      <point x="525" y="1046"/>
      <point x="339" y="847"/>
      <point x="339" y="616" type="curve" smooth="yes"/>
      <point x="339" y="377"/>
      <point x="506" y="226"/>
    </contour>
    <contour>
      <point x="706" y="96" type="curve" smooth="yes"/>
      <point x="410" y="96"/>
      <point x="197" y="340"/>
      <point x="197" y="640" type="curve" smooth="yes"/>
      <point x="197" y="938"/>
      <point x="410" y="1182"/>
      <point x="706" y="1182" type="curve" smooth="yes"/>
      <point x="1004" y="1182"/>
      <point x="1216" y="938"/>
      <point x="1216" y="640" type="curve" smooth="yes"/>
      <point x="1216" y="340"/>
      <point x="1004" y="96"/>
    </contour>
  </outline>
</glyph>
<glyph name="softhyphen" format="2">
  <advance width="744"/>
  <unicode hex="00AD"/>
  <outline>
    <contour>
      <point x="83" y="526" type="line"/>
      <point x="574" y="526" type="line"/>
      <point x="613" y="546"/>
      <point x="664" y="604"/>
      <point x="693" y="634" type="curve"/>
      <point x="664" y="674" type="line"/>
      <point x="154" y="674" type="line"/>
      <point x="131" y="658"/>
      <point x="94" y="618"/>
      <point x="51" y="563" type="curve"/>
    </contour>
    <contour>
      <point x="83" y="266" type="line"/>
      <point x="574" y="266" type="line"/>
      <point x="613" y="286"/>
      <point x="664" y="344"/>
      <point x="693" y="374" type="curve"/>
      <point x="664" y="414" type="line"/>
      <point x="154" y="414" type="line"/>
      <point x="131" y="398"/>
      <point x="94" y="358"/>
      <point x="51" y="303" type="curve"/>
    </contour>
  </outline>
</glyph>
<glyph name="macron" format="2">
  <advance width="946"/>
  <unicode hex="00AF"/>
  <outline>
    <contour>
      <point x="900" y="1244" type="curve"/>
      <point x="867" y="1276" type="line"/>
      <point x="104" y="1276" type="line"/>
      <point x="93" y="1252"/>
      <point x="53" y="1171"/>
      <point x="47" y="1144" type="curve"/>
      <point x="80" y="1112" type="line"/>
      <point x="842" y="1112" type="line"/>
      <point x="852" y="1132"/>
      <point x="892" y="1217"/>
    </contour>
  </outline>
</glyph>
<glyph name="twosuperior" format="2">
  <advance width="695"/>
  <unicode hex="00B2"/>
  <anchor x="348" y="530" name="L"/>
  <anchor x="348" y="1364" name="U"/>
  <outline>
    <contour>
      <point x="617" y="587" type="line"/>
      <point x="627" y="800" type="line"/>
      <point x="568" y="813" type="line"/>
      <point x="568" y="813"/>
      <point x="560" y="695"/>
      <point x="501" y="695" type="curve" smooth="yes"/>
      <point x="244" y="695" type="line"/>
      <point x="528" y="962"/>
      <point x="618" y="1047"/>
      <point x="618" y="1149" type="curve" smooth="yes"/>
      <point x="618" y="1238"/>
      <point x="528" y="1288"/>
      <point x="384" y="1288" type="curve" smooth="yes"/>
      <point x="211" y="1288"/>
      <point x="69" y="1190"/>
      <point x="69" y="1112" type="curve"/>
      <point x="93" y="1066" type="line"/>
      <point x="133" y="1070"/>
      <point x="226" y="1091"/>
      <point x="256" y="1105" type="curve"/>
      <point x="242" y="1163"/>
      <point x="268" y="1219"/>
      <point x="339" y="1219" type="curve" smooth="yes"/>
      <point x="405" y="1219"/>
      <point x="432" y="1173"/>
      <point x="432" y="1111" type="curve" smooth="yes"/>
      <point x="432" y="1031"/>
      <point x="357" y="939"/>
      <point x="52" y="628" type="curve"/>
      <point x="70" y="587" type="line"/>
    </contour>
  </outline>
</glyph>
<glyph name="paragraph" format="2">
  <advance width="1195"/>
  <unicode hex="00B6"/>
  <outline>
    <contour>
      <point x="1072" y="1192" type="curve"/>
      <point x="1072" y="1192"/>
      <point x="624" y="1220"/>
      <point x="514" y="1220" type="curve" smooth="yes"/>
      <point x="215" y="1220"/>
      <point x="28" y="1069"/>
      <point x="28" y="854" type="curve" smooth="yes"/>
      <point x="28" y="618"/>
      <point x="231" y="488"/>
      <point x="511" y="488" type="curve" smooth="yes"/>
      <point x="637" y="488"/>
      <point x="672" y="523"/>
      <point x="672" y="523" type="curve"/>
      <point x="664" y="613" type="line"/>
      <point x="664" y="613"/>
      <point x="632" y="605"/>
      <point x="551" y="605" type="curve" smooth="yes"/>
      <point x="379" y="605"/>
      <point x="305" y="750"/>
      <point x="305" y="887" type="curve" smooth="yes"/>
      <point x="305" y="1028"/>
      <point x="432" y="1103"/>
      <point x="543" y="1103" type="curve" smooth="yes"/>
      <point x="611" y="1103"/>
      <point x="814" y="1094"/>
      <point x="935" y="1047" type="curve"/>
      <point x="945" y="1038"/>
      <point x="1072" y="1192"/>
    </contour>
    <contour>
      <point x="464" y="-236" type="line"/>
      <point x="1130" y="-236" type="line"/>
      <point x="1130" y="-158" type="line"/>
      <point x="1039" y="-140"/>
      <point x="1003" y="-115"/>
      <point x="1003" y="-99" type="curve" smooth="yes"/>
      <point x="1003" y="1055" type="line" smooth="yes"/>
      <point x="1003" y="1073"/>
      <point x="1046" y="1095"/>
      <point x="1130" y="1113" type="curve"/>
      <point x="1130" y="1192" type="line"/>
      <point x="456" y="1192" type="line"/>
      <point x="456" y="1113" type="line"/>
      <point x="547" y="1095"/>
      <point x="593" y="1132"/>
      <point x="593" y="1117" type="curve" smooth="yes"/>
      <point x="591" y="-99" type="line" smooth="yes"/>
      <point x="591" y="-117"/>
      <point x="549" y="-140"/>
      <point x="464" y="-158" type="curve"/>
    </contour>
    <contour>
      <point x="836" y="1101" type="line"/>
      <point x="836" y="-99" type="line" smooth="yes"/>
      <point x="836" y="-114"/>
      <point x="812" y="-125"/>
      <point x="797" y="-129" type="curve"/>
      <point x="785" y="-125"/>
      <point x="761" y="-114"/>
      <point x="761" y="-99" type="curve" smooth="yes"/>
      <point x="761" y="1119" type="line"/>
    </contour>
  </outline>
</glyph>
<glyph name="guillemotright" format="2">
  <advance width="934"/>
  <unicode hex="00BB"/>
  <outline>
    <contour>
      <point x="159" y="-3" type="line"/>
      <point x="516" y="378" type="line"/>
      <point x="518" y="410"/>
      <point x="517" y="431"/>
      <point x="515" y="443" type="curve"/>
      <point x="159" y="821" type="line"/>
      <point x="105" y="777" type="line"/>
      <point x="270" y="411" type="line"/>
      <point x="104" y="41" type="line"/>
    </contour>
    <contour>
      <point x="524" y="-3" type="line"/>
      <point x="882" y="378" type="line"/>
      <point x="881" y="410"/>
      <point x="881" y="431"/>
      <point x="880" y="443" type="curve"/>
      <point x="524" y="821" type="line"/>
      <point x="470" y="777" type="line"/>
      <point x="636" y="411" type="line"/>
      <point x="469" y="41" type="line"/>
    </contour>
  </outline>
</glyph>
<glyph name="Aacute" format="2">
  <advance width="1250"/>
  <unicode hex="00C1"/>
  <anchor x="615" y="0" name="H"/>
  <anchor x="615" y="-97" name="L"/>
  <anchor x="986" y="0" name="O"/>
  <anchor x="615" y="1710" name="U"/>
  <outline>
    <contour>
      <point x="378" y="411" type="line"/>
      <point x="753" y="411" type="line"/>
      <point x="847" y="146" type="line" smooth="yes"/>
      <point x="861" y="103"/>
      <point x="830" y="86"/>
      <point x="732" y="80" type="curve"/>
      <point x="732" y="0" type="line"/>
      <point x="1230" y="0" type="line"/>
      <point x="1230" y="80" type="line"/>
      <point x="1148" y="90"/>
      <point x="1127" y="110"/>
      <point x="1114" y="146" type="curve" smooth="yes"/>
      <point x="713" y="1272" type="line"/>
      <point x="637" y="1252"/>
      <point x="538" y="1215"/>
      <point x="468" y="1156" type="curve"/>
      <point x="141" y="146" type="line" smooth="yes"/>
      <point x="129" y="107"/>
      <point x="86" y="96"/>
      <point x="0" y="80" type="curve"/>
      <point x="0" y="0" type="line"/>
      <point x="424" y="0" type="line"/>
      <point x="424" y="80" type="line"/>
      <point x="320" y="92"/>
      <point x="279" y="106"/>
      <point x="291" y="146" type="curve" smooth="yes"/>
    </contour>
    <contour>
      <point x="710" y="536" type="line"/>
      <point x="419" y="536" type="line"/>
      <point x="556" y="969" type="line"/>
    </contour>
    <contour>
      <point x="469" y="1309" type="curve"/>
      <point x="968" y="1541" type="line"/>
      <point x="958" y="1605" type="line"/>
      <point x="935" y="1624"/>
      <point x="772" y="1709"/>
      <point x="745" y="1720" type="curve"/>
      <point x="398" y="1384" type="line"/>
      <point x="408" y="1369"/>
      <point x="449" y="1320"/>
    </contour>
  </outline>
</glyph>
<glyph name="Acircumflex" format="2">
  <advance width="1250"/>
  <unicode hex="00C2"/>
  <anchor x="615" y="0" name="H"/>
  <anchor x="615" y="-97" name="L"/>
  <anchor x="986" y="0" name="O"/>
  <anchor x="615" y="1768" name="U"/>
  <outline>
    <contour>
      <point x="378" y="411" type="line"/>
      <point x="753" y="411" type="line"/>
      <point x="847" y="146" type="line" smooth="yes"/>
      <point x="861" y="103"/>
      <point x="830" y="86"/>
      <point x="732" y="80" type="curve"/>
      <point x="732" y="0" type="line"/>
      <point x="1230" y="0" type="line"/>
      <point x="1230" y="80" type="line"/>
      <point x="1148" y="90"/>
      <point x="1127" y="110"/>
      <point x="1114" y="146" type="curve" smooth="yes"/>
      <point x="713" y="1272" type="line"/>
      <point x="637" y="1252"/>
      <point x="538" y="1215"/>
      <point x="468" y="1156" type="curve"/>
      <point x="141" y="146" type="line" smooth="yes"/>
      <point x="129" y="107"/>
      <point x="86" y="96"/>
      <point x="0" y="80" type="curve"/>
      <point x="0" y="0" type="line"/>
      <point x="424" y="0" type="line"/>
      <point x="424" y="80" type="line"/>
      <point x="320" y="92"/>
      <point x="279" y="106"/>
      <point x="291" y="146" type="curve" smooth="yes"/>
    </contour>
    <contour>
      <point x="710" y="536" type="line"/>
      <point x="419" y="536" type="line"/>
      <point x="556" y="969" type="line"/>
    </contour>
    <contour>
      <point x="945" y="1383" type="curve"/>
      <point x="686" y="1711" type="line"/>
      <point x="545" y="1711" type="line"/>
      <point x="274" y="1383" type="line"/>
      <point x="292" y="1359"/>
      <point x="325" y="1321"/>
      <point x="346" y="1311" type="curve"/>
      <point x="614" y="1463" type="line"/>
      <point x="882" y="1311" type="line"/>
      <point x="904" y="1321"/>
      <point x="930" y="1359"/>
    </contour>
  </outline>
</glyph>
<glyph name="Eth" format="2">
  <advance width="1273"/>
  <unicode hex="00D0"/>
  <anchor x="611" y="-97" name="L"/>
  <anchor x="611" y="1323" name="U"/>
  <outline>
    <contour>
      <point x="645" y="594" type="line"/>
      <point x="683" y="697" type="line"/>
      <point x="659" y="720" type="line"/>
      <point x="62" y="720" type="line"/>
      <point x="54" y="699"/>
      <point x="32" y="637"/>
      <point x="27" y="617" type="curve"/>
      <point x="48" y="594" type="line"/>
    </contour>
    <contour>
      <point x="38" y="0" type="line"/>
      <point x="78" y="0" type="line" smooth="yes"/>
      <point x="252" y="0"/>
      <point x="376" y="0"/>
      <point x="525" y="0" type="curve" smooth="yes"/>
      <point x="610" y="0" type="line" smooth="yes"/>
      <point x="883" y="0"/>
      <point x="1197" y="170"/>
      <point x="1197" y="653" type="curve" smooth="yes"/>
      <point x="1197" y="1027"/>
      <point x="973" y="1246"/>
      <point x="571" y="1246" type="curve" smooth="yes"/>
      <point x="401" y="1246"/>
      <point x="156" y="1220"/>
      <point x="25" y="1188" type="curve"/>
      <point x="38" y="1090" type="line"/>
      <point x="73" y="1094"/>
      <point x="117" y="1101"/>
      <point x="167" y="1108" type="curve"/>
      <point x="167" y="139" type="line" smooth="yes"/>
      <point x="167" y="122"/>
      <point x="124" y="98"/>
      <point x="38" y="80" type="curve"/>
    </contour>
    <contour>
      <point x="570" y="110" type="curve" smooth="yes"/>
      <point x="496" y="110"/>
      <point x="435" y="119"/>
      <point x="435" y="168" type="curve" smooth="yes"/>
      <point x="435" y="1134" type="line"/>
      <point x="457" y="1135"/>
      <point x="479" y="1136"/>
      <point x="499" y="1136" type="curve" smooth="yes"/>
      <point x="768" y="1136"/>
      <point x="910" y="957"/>
      <point x="910" y="615" type="curve" smooth="yes"/>
      <point x="910" y="253"/>
      <point x="708" y="110"/>
    </contour>
  </outline>
</glyph>
<glyph name="Ograve" format="2">
  <advance width="1230"/>
  <unicode hex="00D2"/>
  <anchor x="585" y="0" name="H"/>
  <anchor x="617" y="-97" name="L"/>
  <anchor x="680" y="0" name="O"/>
  <anchor x="1199" y="1063" name="R"/>
  <anchor x="617" y="1710" name="U"/>
  <outline>
    <contour>
      <point x="578" y="-29" type="curve" smooth="yes"/>
      <point x="895" y="-29"/>
      <point x="1163" y="275"/>
      <point x="1163" y="625" type="curve" smooth="yes"/>
      <point x="1163" y="940"/>
      <point x="977" y="1246"/>
      <point x="633" y="1246" type="curve" smooth="yes"/>
      <point x="286" y="1246"/>
      <point x="48" y="942"/>
      <point x="48" y="591" type="curve" smooth="yes"/>
      <point x="48" y="267"/>
      <point x="251" y="-29"/>
    </contour>
    <contour>
      <point x="625" y="106" type="curve" smooth="yes"/>
      <point x="457" y="106"/>
      <point x="320" y="330"/>
      <point x="320" y="619" type="curve" smooth="yes"/>
      <point x="320" y="934"/>
      <point x="408" y="1116"/>
      <point x="577" y="1116" type="curve" smooth="yes"/>
      <point x="765" y="1116"/>
      <point x="891" y="874"/>
      <point x="891" y="608" type="curve" smooth="yes"/>
      <point x="891" y="267"/>
      <point x="778" y="106"/>
    </contour>
    <contour>
      <point x="801" y="1381" type="curve"/>
      <point x="458" y="1728" type="line"/>
      <point x="430" y="1716"/>
      <point x="271" y="1635"/>
      <point x="249" y="1620" type="curve"/>
      <point x="241" y="1554" type="line"/>
      <point x="730" y="1305" type="line"/>
      <point x="750" y="1319"/>
      <point x="792" y="1360"/>
    </contour>
  </outline>
</glyph>
<glyph name="Oacute" format="2">
  <advance width="1230"/>
  <unicode hex="00D3"/>
  <anchor x="585" y="0" name="H"/>
  <anchor x="617" y="-97" name="L"/>
  <anchor x="680" y="0" name="O"/>
  <anchor x="1199" y="1063" name="R"/>
  <anchor x="617" y="1710" name="U"/>
  <outline>
    <contour>
      <point x="578" y="-29" type="curve" smooth="yes"/>
      <point x="895" y="-29"/>
      <point x="1163" y="275"/>
      <point x="1163" y="625" type="curve" smooth="yes"/>
      <point x="1163" y="940"/>
      <point x="977" y="1246"/>
      <point x="633" y="1246" type="curve" smooth="yes"/>
      <point x="286" y="1246"/>
      <point x="48" y="942"/>
      <point x="48" y="591" type="curve" smooth="yes"/>
      <point x="48" y="267"/>
      <point x="251" y="-29"/>
    </contour>
    <contour>
      <point x="625" y="106" type="curve" smooth="yes"/>
      <point x="457" y="106"/>
      <point x="320" y="330"/>
      <point x="320" y="619" type="curve" smooth="yes"/>
      <point x="320" y="934"/>
      <point x="408" y="1116"/>
      <point x="577" y="1116" type="curve" smooth="yes"/>
      <point x="765" y="1116"/>
      <point x="891" y="874"/>
      <point x="891" y="608" type="curve" smooth="yes"/>
      <point x="891" y="267"/>
      <point x="778" y="106"/>
    </contour>
    <contour>
      <point x="471" y="1309" type="curve"/>
      <point x="970" y="1541" type="line"/>
      <point x="960" y="1605" type="line"/>
      <point x="937" y="1624"/>
      <point x="774" y="1709"/>
      <point x="747" y="1720" type="curve"/>
      <point x="400" y="1384" type="line"/>
      <point x="410" y="1369"/>
      <point x="451" y="1320"/>
    </contour>
  </outline>
</glyph>
<glyph name="agrave" format="2">
  <advance width="983"/>
  <unicode hex="00E0"/>
  <anchor x="383" y="0" name="H"/>
  <anchor x="470" y="-95" name="L"/>
  <anchor x="750" y="0" name="O"/>
  <anchor x="984" y="851" name="R"/>
  <anchor x="493" y="1419" name="U"/>
  <outline>
    <contour>
      <point x="980" y="115" type="curve"/>
      <point x="957" y="196" type="line"/>
      <point x="907" y="175"/>
      <point x="892" y="170"/>
      <point x="874" y="170" type="curve" smooth="yes"/>
      <point x="852" y="170"/>
      <point x="837" y="191"/>
      <point x="837" y="244" type="curve" smooth="yes"/>
      <point x="837" y="674" type="line" smooth="yes"/>
      <point x="837" y="803"/>
      <point x="759" y="908"/>
      <point x="575" y="908" type="curve" smooth="yes"/>
      <point x="351" y="908"/>
      <point x="135" y="788"/>
      <point x="73" y="630" type="curve"/>
      <point x="96" y="574" type="line"/>
      <point x="126" y="567"/>
      <point x="370" y="633"/>
      <point x="367" y="657" type="curve" smooth="yes"/>
      <point x="360" y="732"/>
      <point x="421" y="776"/>
      <point x="473" y="776" type="curve" smooth="yes"/>
      <point x="558" y="776"/>
      <point x="584" y="721"/>
      <point x="584" y="645" type="curve" smooth="yes"/>
      <point x="584" y="155" type="line" smooth="yes"/>
      <point x="584" y="43"/>
      <point x="623" y="-28"/>
      <point x="677" y="-28" type="curve" smooth="yes"/>
      <point x="726" y="-28"/>
      <point x="874" y="42"/>
    </contour>
    <contour>
      <point x="593" y="443" type="curve"/>
      <point x="593" y="542" type="line"/>
      <point x="279" y="494"/>
      <point x="197" y="441"/>
      <point x="136" y="379" type="curve" smooth="yes"/>
      <point x="90" y="333"/>
      <point x="56" y="276"/>
      <point x="56" y="195" type="curve" smooth="yes"/>
      <point x="56" y="48"/>
      <point x="166" y="-28"/>
      <point x="275" y="-28" type="curve" smooth="yes"/>
      <point x="359" y="-28"/>
      <point x="483" y="7"/>
      <point x="601" y="134" type="curve"/>
      <point x="593" y="252" type="line"/>
      <point x="495" y="164"/>
      <point x="444" y="151"/>
      <point x="405" y="151" type="curve" smooth="yes"/>
      <point x="372" y="151"/>
      <point x="322" y="173"/>
      <point x="322" y="254" type="curve" smooth="yes"/>
      <point x="322" y="306"/>
      <point x="344" y="338"/>
      <point x="377" y="371" type="curve" smooth="yes"/>
      <point x="408" y="402"/>
      <point x="455" y="420"/>
    </contour>
    <contour>
      <point x="617" y="1029" type="curve"/>
      <point x="421" y="1437" type="line"/>
      <point x="390" y="1435"/>
      <point x="215" y="1402"/>
      <point x="190" y="1395" type="curve"/>
      <point x="160" y="1338" type="line"/>
      <point x="528" y="981" type="line"/>
      <point x="549" y="988"/>
      <point x="602" y="1014"/>
    </contour>
  </outline>
</glyph>
<glyph name="ecircumflex" format="2">
  <advance width="942"/>
  <unicode hex="00EA"/>
  <anchor x="499" y="0" name="H"/>
  <anchor x="499" y="-95" name="L"/>
  <anchor x="523" y="0" name="O"/>
  <anchor x="956" y="851" name="R"/>
  <anchor x="510" y="1438" name="U"/>
  <outline>
    <contour>
      <point x="886" y="517" type="curve"/>
      <point x="886" y="735"/>
      <point x="765" y="908"/>
      <point x="519" y="908" type="curve" smooth="yes"/>
      <point x="415" y="908"/>
      <point x="314" y="867"/>
      <point x="245" y="815" type="curve" smooth="yes"/>
      <point x="118" y="719"/>
      <point x="56" y="590"/>
      <point x="56" y="420" type="curve" smooth="yes"/>
      <point x="56" y="153"/>
      <point x="234" y="-28"/>
      <point x="454" y="-28" type="curve" smooth="yes"/>
      <point x="611" y="-28"/>
      <point x="705" y="9"/>
      <point x="881" y="184" type="curve"/>
      <point x="875" y="194"/>
      <point x="843" y="243"/>
      <point x="827" y="252" type="curve"/>
      <point x="678" y="154"/>
      <point x="618" y="142"/>
      <point x="540" y="142" type="curve" smooth="yes"/>
      <point x="395" y="142"/>
      <point x="319" y="272"/>
      <point x="319" y="461" type="curve" smooth="yes"/>
      <point x="319" y="664"/>
      <point x="352" y="790"/>
      <point x="483" y="790" type="curve" smooth="yes"/>
      <point x="600" y="790"/>
      <point x="639" y="660"/>
      <point x="639" y="583" type="curve" smooth="yes"/>
      <point x="639" y="556"/>
      <point x="632" y="549"/>
      <point x="603" y="549" type="curve" smooth="yes"/>
      <point x="172" y="549" type="line"/>
      <point x="171" y="435" type="line"/>
      <point x="746" y="435" type="line"/>
      <point x="786" y="451"/>
      <point x="864" y="492"/>
    </contour>
    <contour>
      <point x="834" y="1052" type="curve"/>
      <point x="579" y="1420" type="line"/>
      <point x="441" y="1420" type="line"/>
      <point x="175" y="1052" type="line"/>
      <point x="193" y="1028"/>
      <point x="225" y="990"/>
      <point x="245" y="981" type="curve"/>
      <point x="509" y="1178" type="line"/>
      <point x="775" y="981" type="line"/>
      <point x="796" y="990"/>
      <point x="819" y="1028"/>
    </contour>
  </outline>
</glyph>
<glyph name="edieresis" format="2">
  <advance width="942"/>
  <unicode hex="00EB"/>
  <anchor x="499" y="0" name="H"/>
  <anchor x="499" y="-95" name="L"/>
  <anchor x="523" y="0" name="O"/>
  <anchor x="956" y="851" name="R"/>
  <anchor x="510" y="1391" name="U"/>
  <outline>
    <contour>
      <point x="886" y="517" type="curve"/>
      <point x="886" y="735"/>
      <point x="765" y="908"/>
      <point x="519" y="908" type="curve" smooth="yes"/>
      <point x="415" y="908"/>
      <point x="314" y="867"/>
      <point x="245" y="815" type="curve" smooth="yes"/>
      <point x="118" y="719"/>
      <point x="56" y="590"/>
      <point x="56" y="420" type="curve" smooth="yes"/>
      <point x="56" y="153"/>
      <point x="234" y="-28"/>
      <point x="454" y="-28" type="curve" smooth="yes"/>
      <point x="611" y="-28"/>
      <point x="705" y="9"/>
      <point x="881" y="184" type="curve"/>
      <point x="875" y="194"/>
      <point x="843" y="243"/>
      <point x="827" y="252" type="curve"/>
      <point x="678" y="154"/>
      <point x="618" y="142"/>
      <point x="540" y="142" type="curve" smooth="yes"/>
      <point x="395" y="142"/>
      <point x="319" y="272"/>
      <point x="319" y="461" type="curve" smooth="yes"/>
      <point x="319" y="664"/>
      <point x="352" y="790"/>
      <point x="483" y="790" type="curve" smooth="yes"/>
      <point x="600" y="790"/>
      <point x="639" y="660"/>
      <point x="639" y="583" type="curve" smooth="yes"/>
      <point x="639" y="556"/>
      <point x="632" y="549"/>
      <point x="603" y="549" type="curve" smooth="yes"/>
      <point x="172" y="549" type="line"/>
      <point x="171" y="435" type="line"/>
      <point x="746" y="435" type="line"/>
      <point x="786" y="451"/>
      <point x="864" y="492"/>
    </contour>
    <contour>
      <point x="449" y="1201" type="curve" smooth="yes"/>
      <point x="449" y="1284"/>
      <point x="402" y="1324"/>
      <point x="327" y="1324" type="curve" smooth="yes"/>
      <point x="245" y="1324"/>
      <point x="168" y="1245"/>
      <point x="168" y="1145" type="curve" smooth="yes"/>
      <point x="168" y="1064"/>
      <point x="212" y="1022"/>
      <point x="290" y="1022" type="curve" smooth="yes"/>
      <point x="376" y="1022"/>
      <point x="449" y="1102"/>
    </contour>
    <contour>
      <point x="852" y="1201" type="curve" smooth="yes"/>
      <point x="852" y="1284"/>
      <point x="805" y="1324"/>
      <point x="730" y="1324" type="curve" smooth="yes"/>
      <point x="647" y="1324"/>
      <point x="571" y="1245"/>
      <point x="571" y="1145" type="curve" smooth="yes"/>
      <point x="571" y="1064"/>
      <point x="615" y="1022"/>
      <point x="692" y="1022" type="curve" smooth="yes"/>
      <point x="779" y="1022"/>
      <point x="852" y="1102"/>
    </contour>
  </outline>
</glyph>
<glyph name="iacute" format="2">
  <advance width="594"/>
  <unicode hex="00ED"/>
  <anchor x="305" y="0" name="H"/>
  <anchor x="305" y="-95" name="L"/>
  <anchor x="362" y="0" name="O"/>
  <anchor x="595" y="851" name="R"/>
  <anchor x="220" y="1419" name="U"/>
  <outline>
    <contour>
      <point x="56" y="0" type="line"/>
      <point x="553" y="0" type="line"/>
      <point x="553" y="79" type="line"/>
      <point x="462" y="96"/>
      <point x="431" y="121"/>
      <point x="431" y="136" type="curve" smooth="yes"/>
      <point x="431" y="908" type="line"/>
      <point x="362" y="908" type="line"/>
      <point x="270" y="877"/>
      <point x="172" y="857"/>
      <point x="56" y="842" type="curve"/>
      <point x="56" y="766" type="line"/>
      <point x="188" y="754"/>
      <point x="178" y="735"/>
      <point x="178" y="605" type="curve" smooth="yes"/>
      <point x="178" y="136" type="line" smooth="yes"/>
      <point x="178" y="119"/>
      <point x="141" y="96"/>
      <point x="56" y="79" type="curve"/>
    </contour>
    <contour>
      <point x="243" y="981" type="curve"/>
      <point x="613" y="1340" type="line"/>
      <point x="582" y="1396" type="line"/>
      <point x="554" y="1405"/>
      <point x="372" y="1435"/>
      <point x="343" y="1437" type="curve"/>
      <point x="152" y="1026" type="line"/>
      <point x="166" y="1015"/>
      <point x="220" y="985"/>
    </contour>
  </outline>
</glyph>
<glyph name="ocircumflex" format="2">
  <advance width="1021"/>
  <unicode hex="00F4"/>
  <anchor x="531" y="0" name="H"/>
  <anchor x="531" y="-95" name="L"/>
  <anchor x="573" y="0" name="O"/>
  <anchor x="1021" y="851" name="R"/>
  <anchor x="531" y="1438" name="U"/>
  <outline>
    <contour>
      <point x="965" y="459" type="curve" smooth="yes"/>
      <point x="965" y="717"/>
      <point x="793" y="908"/>
      <point x="529" y="908" type="curve" smooth="yes"/>
      <point x="248" y="908"/>
      <point x="56" y="671"/>
      <point x="56" y="420" type="curve" smooth="yes"/>
      <point x="56" y="163"/>
      <point x="229" y="-28"/>
      <point x="493" y="-28" type="curve" smooth="yes"/>
      <point x="749" y="-28"/>
      <point x="965" y="207"/>
    </contour>
    <contour>
      <point x="698" y="412" type="curve" smooth="yes"/>
      <point x="698" y="205"/>
      <point x="659" y="95"/>
      <point x="519" y="95" type="curve" smooth="yes"/>
      <point x="404" y="95"/>
      <point x="323" y="248"/>
      <point x="323" y="447" type="curve" smooth="yes"/>
      <point x="323" y="639"/>
      <point x="359" y="785"/>
      <point x="502" y="785" type="curve" smooth="yes"/>
      <point x="631" y="785"/>
      <point x="698" y="611"/>
    </contour>
    <contour>
      <point x="855" y="1052" type="curve"/>
      <point x="601" y="1420" type="line"/>
      <point x="463" y="1420" type="line"/>
      <point x="197" y="1052" type="line"/>
      <point x="215" y="1028"/>
      <point x="246" y="990"/>
      <point x="267" y="981" type="curve"/>
      <point x="530" y="1178" type="line"/>
      <point x="796" y="981" type="line"/>
      <point x="818" y="990"/>
      <point x="840" y="1028"/>
    </contour>
  </outline>
</glyph>
<glyph name="ugrave" format="2">
  <advance width="1100"/>
  <unicode hex="00F9"/>
  <anchor x="498" y="0" name="H"/>
  <anchor x="551" y="-95" name="L"/>
  <anchor x="830" y="0" name="O"/>
  <anchor x="1195" y="851" name="R"/>
  <anchor x="551" y="1419" name="U"/>
  <outline>
    <contour>
      <point x="1095" y="115" type="curve"/>
      <point x="1067" y="196" type="line"/>
      <point x="1004" y="168"/>
      <point x="987" y="163"/>
      <point x="973" y="174" type="curve" smooth="yes"/>
      <point x="956" y="187"/>
      <point x="951" y="201"/>
      <point x="951" y="278" type="curve" smooth="yes"/>
      <point x="951" y="862" type="line"/>
      <point x="914" y="908" type="line"/>
      <point x="817" y="885"/>
      <point x="713" y="867"/>
      <point x="576" y="855" type="curve"/>
      <point x="576" y="780" type="line"/>
      <point x="692" y="774"/>
      <point x="698" y="758"/>
      <point x="698" y="644" type="curve" smooth="yes"/>
      <point x="698" y="248" type="line"/>
      <point x="598" y="167"/>
      <point x="533" y="151"/>
      <point x="490" y="151" type="curve" smooth="yes"/>
      <point x="428" y="151"/>
      <point x="394" y="177"/>
      <point x="394" y="325" type="curve" smooth="yes"/>
      <point x="394" y="862" type="line"/>
      <point x="358" y="908" type="line"/>
      <point x="247" y="875"/>
      <point x="166" y="867"/>
      <point x="29" y="855" type="curve"/>
      <point x="29" y="780" type="line"/>
      <point x="140" y="768"/>
      <point x="141" y="764"/>
      <point x="141" y="644" type="curve" smooth="yes"/>
      <point x="141" y="264" type="line" smooth="yes"/>
      <point x="141" y="27"/>
      <point x="266" y="-28"/>
      <point x="382" y="-28" type="curve" smooth="yes"/>
      <point x="462" y="-28"/>
      <point x="543" y="-9"/>
      <point x="698" y="119" type="curve"/>
      <point x="715" y="-10"/>
      <point x="762" y="-28"/>
      <point x="806" y="-28" type="curve" smooth="yes"/>
      <point x="837" y="-28"/>
      <point x="1004" y="55"/>
    </contour>
    <contour>
      <point x="676" y="1029" type="curve"/>
      <point x="479" y="1437" type="line"/>
      <point x="448" y="1435"/>
      <point x="273" y="1402"/>
      <point x="248" y="1395" type="curve"/>
      <point x="218" y="1338" type="line"/>
      <point x="586" y="981" type="line"/>
      <point x="607" y="988"/>
      <point x="660" y="1014"/>
    </contour>
  </outline>
</glyph>
<glyph name="breve" format="2">
  <advance width="684"/>
  <unicode hex="02D8"/>
  <anchor x="342" y="1296" name="U"/>
  <outline>
    <contour>
      <point x="684" y="1296" type="curve"/>
      <point x="669" y="1319"/>
      <point x="628" y="1358"/>
      <point x="606" y="1367" type="curve"/>
      <point x="543" y="1260"/>
      <point x="428" y="1203"/>
      <point x="340" y="1203" type="curve" smooth="yes"/>
      <point x="257" y="1203"/>
      <point x="140" y="1261"/>
      <point x="78" y="1367" type="curve"/>
      <point x="57" y="1358"/>
      <point x="15" y="1319"/>
      <point x="0" y="1296" type="curve"/>
      <point x="75" y="1093"/>
      <point x="202" y="1003"/>
      <point x="344" y="1003" type="curve" smooth="yes"/>
      <point x="475" y="1003"/>
      <point x="609" y="1093"/>
    </contour>
  </outline>
</glyph>
<glyph name="dandadbl" format="2">
  <advance width="865"/>
  <unicode hex="0965"/>
  <outline>
    <contour>
      <point x="126" y="933" type="curve"/>
      <point x="119" y="808"/>
      <point x="117" y="421"/>
      <point x="133" y="4" type="curve"/>
      <point x="133" y="4"/>
      <point x="191" y="-34"/>
      <point x="191" y="-34" type="curve"/>
      <point x="251" y="-16"/>
      <point x="372" y="36"/>
      <point x="385" y="67" type="curve"/>
      <point x="357" y="372"/>
      <point x="354" y="688"/>
      <point x="379" y="957" type="curve"/>
      <point x="333" y="999" type="line"/>
      <point x="291" y="986"/>
      <point x="159" y="964"/>
    </contour>
    <contour>
      <point x="486" y="933" type="curve"/>
      <point x="479" y="808"/>
      <point x="477" y="421"/>
      <point x="493" y="4" type="curve"/>
      <point x="493" y="4"/>
      <point x="551" y="-34"/>
      <point x="551" y="-34" type="curve"/>
      <point x="611" y="-16"/>
      <point x="732" y="36"/>
      <point x="745" y="67" type="curve"/>
      <point x="717" y="372"/>
      <point x="714" y="688"/>
      <point x="739" y="957" type="curve"/>
      <point x="693" y="999" type="line"/>
      <point x="651" y="986"/>
      <point x="519" y="964"/>
    </contour>
  </outline>
</glyph>
<glyph name="vowelcarrier-limb" format="2">
  <advance width="1144"/>
  <unicode hex="1900"/>
  <anchor x="545" y="1050" name="K"/>
  <anchor x="535" y="-100" name="L"/>
  <anchor x="890" y="1050" name="O"/>
  <anchor x="535" y="1050" name="U"/>
  <anchor x="947" y="50" name="V"/>
  <outline>
    <contour>
      <point x="664" y="879" type="curve"/>
      <point x="516" y="879" type="line"/>
      <point x="381" y="734"/>
      <point x="211" y="575"/>
      <point x="58" y="435" type="curve"/>
      <point x="98" y="380" type="line"/>
      <point x="508" y="380" type="line"/>
      <point x="468" y="463" type="line"/>
      <point x="369" y="319"/>
      <point x="216" y="186"/>
      <point x="52" y="16" type="curve"/>
      <point x="89" y="-34" type="line"/>
      <point x="225" y="17"/>
      <point x="352" y="43"/>
      <point x="479" y="43" type="curve" smooth="yes"/>
      <point x="613" y="43"/>
      <point x="786" y="11"/>
      <point x="919" y="-34" type="curve"/>
      <point x="948" y="-16"/>
      <point x="1048" y="56"/>
      <point x="1060" y="87" type="curve"/>
      <point x="1052" y="233"/>
      <point x="1047" y="367"/>
      <point x="1047" y="540" type="curve" smooth="yes"/>
      <point x="1047" y="660"/>
      <point x="1049" y="789"/>
      <point x="1054" y="930" type="curve"/>
      <point x="1028" y="970" type="line"/>
      <point x="189" y="970" type="line"/>
      <point x="159" y="949"/>
      <point x="83" y="876"/>
      <point x="50" y="835" type="curve"/>
      <point x="89" y="785" type="line"/>
      <point x="881" y="785" type="line"/>
      <point x="821" y="889" type="line"/>
      <point x="818" y="722"/>
      <point x="816" y="564"/>
      <point x="816" y="429" type="curve" smooth="yes"/>
      <point x="816" y="297"/>
      <point x="819" y="185"/>
      <point x="825" y="102" type="curve"/>
      <point x="909" y="173" type="line"/>
      <point x="850" y="199"/>
      <point x="714" y="233"/>
      <point x="571" y="233" type="curve" smooth="yes"/>
      <point x="487" y="233"/>
      <point x="369" y="213"/>
      <point x="311" y="189" type="curve"/>
      <point x="340" y="129" type="line"/>
      <point x="388" y="171"/>
      <point x="558" y="374"/>
      <point x="644" y="495" type="curve"/>
      <point x="614" y="542" type="line"/>
      <point x="223" y="542" type="line"/>
      <point x="314" y="502" type="line"/>
      <point x="329" y="498"/>
      <point x="553" y="743"/>
    </contour>
  </outline>
</glyph>
<glyph name="ka-limb" format="2">
  <advance width="1015"/>
  <unicode hex="1901"/>
  <anchor x="510" y="1050" name="K"/>
  <anchor x="495" y="-100" name="L"/>
  <anchor x="765" y="1050" name="O"/>
  <anchor x="497" y="1050" name="U"/>
  <anchor x="930" y="50" name="V"/>
  <outline>
    <contour>
      <point x="179" y="970" type="curve"/>
      <point x="150" y="949"/>
      <point x="75" y="876"/>
      <point x="41" y="835" type="curve"/>
      <point x="80" y="785" type="line"/>
      <point x="98" y="785"/>
      <point x="803" y="785"/>
      <point x="711" y="785" type="curve"/>
      <point x="700" y="875" type="line"/>
      <point x="441" y="645"/>
      <point x="188" y="289"/>
      <point x="40" y="50" type="curve"/>
      <point x="72" y="0" type="line"/>
      <point x="870" y="0" type="line"/>
      <point x="896" y="23"/>
      <point x="970" y="109"/>
      <point x="985" y="135" type="curve"/>
      <point x="942" y="185" type="line"/>
      <point x="205" y="185" type="line"/>
      <point x="291" y="101" type="line"/>
      <point x="422" y="313"/>
      <point x="723" y="679"/>
      <point x="968" y="910" type="curve"/>
      <point x="930" y="970" type="line"/>
      <point x="930" y="970"/>
      <point x="178" y="970"/>
    </contour>
  </outline>
</glyph>
<glyph name="ta-limb" format="2">
  <advance width="972"/>
  <unicode hex="190B"/>
  <anchor x="463" y="1050" name="K"/>
  <anchor x="448" y="-100" name="L"/>
  <anchor x="703" y="1050" name="O"/>
  <anchor x="463" y="1050" name="U"/>
  <anchor x="783" y="50" name="V"/>
  <outline>
    <contour>
      <point x="528" y="621" type="curve"/>
      <point x="368" y="621"/>
      <point x="382" y="622"/>
      <point x="345" y="621" type="curve"/>
      <point x="302" y="601"/>
      <point x="219" y="522"/>
      <point x="199" y="494" type="curve"/>
      <point x="222" y="451" type="line"/>
      <point x="256" y="451"/>
      <point x="425" y="451"/>
      <point x="458" y="451" type="curve" smooth="yes"/>
      <point x="578" y="451"/>
      <point x="665" y="380"/>
      <point x="664" y="264" type="curve" smooth="yes"/>
      <point x="663" y="181"/>
      <point x="617" y="116"/>
      <point x="473" y="116" type="curve" smooth="yes"/>
      <point x="307" y="116"/>
      <point x="189" y="220"/>
      <point x="191" y="318" type="curve"/>
      <point x="184" y="323"/>
      <point x="150" y="339"/>
      <point x="140" y="340" type="curve"/>
      <point x="96" y="290"/>
      <point x="50" y="166"/>
      <point x="50" y="122" type="curve" smooth="yes"/>
      <point x="50" y="86"/>
      <point x="158" y="-34"/>
      <point x="420" y="-34" type="curve" smooth="yes"/>
      <point x="735" y="-34"/>
      <point x="912" y="173"/>
      <point x="912" y="324" type="curve" smooth="yes"/>
      <point x="912" y="465"/>
      <point x="841" y="621"/>
    </contour>
    <contour>
      <point x="502" y="616" type="curve"/>
      <point x="683" y="554" type="line"/>
      <point x="767" y="592"/>
      <point x="856" y="641"/>
      <point x="856" y="762" type="curve" smooth="yes"/>
      <point x="856" y="897"/>
      <point x="734" y="995"/>
      <point x="494" y="995" type="curve" smooth="yes"/>
      <point x="324" y="995"/>
      <point x="166" y="914"/>
      <point x="85" y="799" type="curve"/>
      <point x="128" y="759" type="line"/>
      <point x="217" y="821"/>
      <point x="292" y="852"/>
      <point x="413" y="851" type="curve" smooth="yes"/>
      <point x="529" y="850"/>
      <point x="587" y="793"/>
      <point x="587" y="738" type="curve" smooth="yes"/>
      <point x="587" y="657"/>
      <point x="531" y="626"/>
    </contour>
  </outline>
</glyph>
<glyph name="da-limb" format="2">
  <advance width="1094"/>
  <unicode hex="190D"/>
  <anchor x="610" y="1050" name="K"/>
  <anchor x="555" y="-100" name="L"/>
  <anchor x="722" y="1050" name="O"/>
  <anchor x="555" y="1050" name="U"/>
  <anchor x="926" y="50" name="V"/>
  <outline>
    <contour>
      <point x="1047" y="375" type="curve" smooth="yes"/>
      <point x="1047" y="524"/>
      <point x="949" y="643"/>
      <point x="709" y="643" type="curve" smooth="yes"/>
      <point x="629" y="643"/>
      <point x="568" y="624"/>
      <point x="510" y="597" type="curve"/>
      <point x="568" y="580" type="line"/>
      <point x="596" y="664"/>
      <point x="645" y="767"/>
      <point x="716" y="842" type="curve"/>
      <point x="532" y="833" type="line"/>
      <point x="457" y="721"/>
      <point x="400" y="603"/>
      <point x="355" y="481" type="curve"/>
      <point x="394" y="436" type="line"/>
      <point x="464" y="478"/>
      <point x="523" y="489"/>
      <point x="609" y="489" type="curve" smooth="yes"/>
      <point x="748" y="489"/>
      <point x="808" y="391"/>
      <point x="808" y="294" type="curve" smooth="yes"/>
      <point x="808" y="208"/>
      <point x="763" y="116"/>
      <point x="622" y="116" type="curve" smooth="yes"/>
      <point x="418" y="116"/>
      <point x="246" y="261"/>
      <point x="246" y="348" type="curve" smooth="yes"/>
      <point x="246" y="378"/>
      <point x="251" y="406"/>
      <point x="262" y="438" type="curve"/>
      <point x="246" y="449"/>
      <point x="231" y="460"/>
      <point x="215" y="464" type="curve"/>
      <point x="136" y="404"/>
      <point x="60" y="267"/>
      <point x="60" y="234" type="curve" smooth="yes"/>
      <point x="60" y="135"/>
      <point x="167" y="-34"/>
      <point x="540" y="-34" type="curve" smooth="yes"/>
      <point x="864" y="-34"/>
      <point x="1047" y="189"/>
    </contour>
    <contour>
      <point x="966" y="822" type="curve" smooth="yes"/>
      <point x="990" y="846"/>
      <point x="1019" y="872"/>
      <point x="1044" y="974" type="curve"/>
      <point x="993" y="1000" type="line"/>
      <point x="878" y="912"/>
      <point x="730" y="890"/>
      <point x="602" y="890" type="curve" smooth="yes"/>
      <point x="488" y="890"/>
      <point x="329" y="927"/>
      <point x="261" y="994" type="curve"/>
      <point x="204" y="1000" type="line"/>
      <point x="156" y="972"/>
      <point x="107" y="907"/>
      <point x="78" y="861" type="curve"/>
      <point x="82" y="812"/>
      <point x="385" y="716"/>
      <point x="521" y="716" type="curve" smooth="yes"/>
      <point x="692" y="716"/>
      <point x="919" y="774"/>
    </contour>
  </outline>
</glyph>
<glyph name="pha-limb" format="2">
  <advance width="1469"/>
  <unicode hex="1911"/>
  <anchor x="749" y="1050" name="K"/>
  <anchor x="689" y="-100" name="L"/>
  <anchor x="923" y="1050" name="O"/>
  <anchor x="719" y="1050" name="U"/>
  <anchor x="1265" y="50" name="V"/>
  <outline>
    <contour>
      <point x="117" y="585" type="line"/>
      <point x="152" y="615"/>
      <point x="214" y="672"/>
      <point x="247" y="721" type="curve"/>
      <point x="254" y="803"/>
      <point x="285" y="830"/>
      <point x="340" y="830" type="curve" smooth="yes"/>
      <point x="405" y="830"/>
      <point x="494" y="769"/>
      <point x="600" y="403" type="curve"/>
      <point x="674" y="154"/>
      <point x="768" y="-35"/>
      <point x="1011" y="-34" type="curve" smooth="yes"/>
      <point x="1280" y="-33"/>
      <point x="1419" y="212"/>
      <point x="1419" y="528" type="curve" smooth="yes"/>
      <point x="1419" y="817"/>
      <point x="1304" y="995"/>
      <point x="1083" y="995" type="curve" smooth="yes"/>
      <point x="853" y="995"/>
      <point x="768" y="818"/>
      <point x="637" y="537" type="curve" smooth="yes"/>
      <point x="451" y="139"/>
      <point x="379" y="132"/>
      <point x="337" y="132" type="curve" smooth="yes"/>
      <point x="293" y="132"/>
      <point x="224" y="162"/>
      <point x="225" y="360" type="curve"/>
      <point x="219" y="363"/>
      <point x="204" y="370"/>
      <point x="192" y="372" type="curve"/>
      <point x="141" y="340"/>
      <point x="70" y="299"/>
      <point x="50" y="254" type="curve"/>
      <point x="70" y="66"/>
      <point x="146" y="-34"/>
      <point x="314" y="-34" type="curve" smooth="yes"/>
      <point x="536" y="-34"/>
      <point x="660" y="183"/>
      <point x="766" y="415" type="curve" smooth="yes"/>
      <point x="953" y="820"/>
      <point x="989" y="830"/>
      <point x="1028" y="830" type="curve" smooth="yes"/>
      <point x="1105" y="830"/>
      <point x="1188" y="672"/>
      <point x="1188" y="424" type="curve" smooth="yes"/>
      <point x="1188" y="204"/>
      <point x="1136" y="130"/>
      <point x="1085" y="130" type="curve" smooth="yes"/>
      <point x="987" y="130"/>
      <point x="903" y="242"/>
      <point x="811" y="562" type="curve" smooth="yes"/>
      <point x="722" y="869"/>
      <point x="635" y="995"/>
      <point x="455" y="995" type="curve" smooth="yes"/>
      <point x="295" y="995"/>
      <point x="117" y="869"/>
      <point x="59" y="633" type="curve"/>
    </contour>
  </outline>
</glyph>
<glyph name="ba-limb" format="2">
  <advance width="1179"/>
  <unicode hex="1912"/>
  <anchor x="650" y="1050" name="K"/>
  <anchor x="608" y="-100" name="L"/>
  <anchor x="852" y="1050" name="O"/>
  <anchor x="608" y="1050" name="U"/>
  <anchor x="1019" y="50" name="V"/>
  <outline>
    <contour>
      <point x="189" y="970" type="line"/>
      <point x="140" y="940"/>
      <point x="85" y="881"/>
      <point x="50" y="835" type="curve"/>
      <point x="89" y="785" type="line"/>
      <point x="991" y="785" type="line"/>
      <point x="1045" y="820"/>
      <point x="1115" y="874"/>
      <point x="1149" y="920" type="curve"/>
      <point x="1114" y="970" type="line"/>
    </contour>
    <contour>
      <point x="574" y="884" type="line"/>
      <point x="304" y="828"/>
      <point x="105" y="604"/>
      <point x="105" y="377" type="curve" smooth="yes"/>
      <point x="105" y="99"/>
      <point x="317" y="-34"/>
      <point x="596" y="-34" type="curve" smooth="yes"/>
      <point x="915" y="-34"/>
      <point x="1113" y="163"/>
      <point x="1113" y="339" type="curve" smooth="yes"/>
      <point x="1113" y="437"/>
      <point x="1051" y="546"/>
      <point x="887" y="546" type="curve" smooth="yes"/>
      <point x="708" y="546"/>
      <point x="542" y="402"/>
      <point x="542" y="267" type="curve" smooth="yes"/>
      <point x="542" y="207"/>
      <point x="575" y="148"/>
      <point x="655" y="105" type="curve"/>
      <point x="816" y="124"/>
      <point x="827" y="118"/>
      <point x="901" y="180" type="curve"/>
      <point x="758" y="180"/>
      <point x="722" y="226"/>
      <point x="725" y="323" type="curve" smooth="yes"/>
      <point x="727" y="375"/>
      <point x="772" y="410"/>
      <point x="821" y="410" type="curve" smooth="yes"/>
      <point x="870" y="410"/>
      <point x="923" y="376"/>
      <point x="923" y="272" type="curve" smooth="yes"/>
      <point x="923" y="226"/>
      <point x="864" y="139"/>
      <point x="747" y="139" type="curve" smooth="yes"/>
      <point x="563" y="139"/>
      <point x="355" y="200"/>
      <point x="351" y="426" type="curve"/>
      <point x="348" y="634"/>
      <point x="491" y="808"/>
      <point x="712" y="872" type="curve"/>
    </contour>
  </outline>
</glyph>
<glyph name="bha-limb" format="2">
  <advance width="1285"/>
  <unicode hex="1913"/>
  <anchor x="640" y="1050" name="K"/>
  <anchor x="611" y="-100" name="L"/>
  <anchor x="1022" y="1050" name="O"/>
  <anchor x="611" y="1050" name="U"/>
  <anchor x="1081" y="50" name="V"/>
  <outline>
    <contour>
      <point x="951" y="836" type="curve"/>
      <point x="949" y="550"/>
      <point x="937" y="261"/>
      <point x="949" y="-3" type="curve"/>
      <point x="952" y="-6"/>
      <point x="1004" y="-34"/>
      <point x="1008" y="-34" type="curve"/>
      <point x="1037" y="-26"/>
      <point x="1192" y="66"/>
      <point x="1205" y="97" type="curve"/>
      <point x="1190" y="315"/>
      <point x="1187" y="616"/>
      <point x="1198" y="960" type="curve"/>
      <point x="1163" y="1000" type="line"/>
      <point x="1129" y="978"/>
      <point x="989" y="895"/>
    </contour>
    <contour>
      <point x="1143" y="473" type="line"/>
      <point x="1038" y="379"/>
      <point x="891" y="365"/>
      <point x="822" y="366" type="curve" smooth="yes"/>
      <point x="740" y="367"/>
      <point x="669" y="380"/>
      <point x="670" y="506" type="curve" smooth="yes"/>
      <point x="671" y="651"/>
      <point x="824" y="679"/>
      <point x="824" y="827" type="curve" smooth="yes"/>
      <point x="824" y="931"/>
      <point x="755" y="995"/>
      <point x="554" y="995" type="curve" smooth="yes"/>
      <point x="251" y="995"/>
      <point x="50" y="741"/>
      <point x="51" y="514" type="curve" smooth="yes"/>
      <point x="52" y="314"/>
      <point x="178" y="230"/>
      <point x="341" y="230" type="curve" smooth="yes"/>
      <point x="508" y="230"/>
      <point x="602" y="326"/>
      <point x="636" y="379" type="curve"/>
      <point x="630" y="396"/>
      <point x="609" y="429"/>
      <point x="567" y="442" type="curve"/>
      <point x="527" y="445"/>
      <point x="558" y="366"/>
      <point x="442" y="366" type="curve" smooth="yes"/>
      <point x="362" y="366"/>
      <point x="301" y="414"/>
      <point x="301" y="559" type="curve" smooth="yes"/>
      <point x="301" y="709"/>
      <point x="387" y="878"/>
      <point x="500" y="878" type="curve" smooth="yes"/>
      <point x="554" y="878"/>
      <point x="579" y="858"/>
      <point x="579" y="787" type="curve" smooth="yes"/>
      <point x="579" y="615"/>
      <point x="444" y="622"/>
      <point x="444" y="430" type="curve" smooth="yes"/>
      <point x="444" y="306"/>
      <point x="576" y="230"/>
      <point x="729" y="230" type="curve" smooth="yes"/>
      <point x="895" y="230"/>
      <point x="1052" y="291"/>
      <point x="1162" y="372" type="curve"/>
    </contour>
  </outline>
</glyph>
<glyph name="ya-limb" format="2">
  <advance width="996"/>
  <unicode hex="1915"/>
  <anchor x="492" y="1050" name="K"/>
  <anchor x="482" y="-100" name="L"/>
  <anchor x="742" y="1050" name="O"/>
  <anchor x="482" y="1050" name="U"/>
  <anchor x="907" y="50" name="V"/>
  <outline>
    <contour>
      <point x="195" y="970" type="line"/>
      <point x="165" y="949"/>
      <point x="73" y="865"/>
      <point x="50" y="835" type="curve"/>
      <point x="90" y="785" type="line"/>
      <point x="600" y="785" type="line"/>
      <point x="629" y="875" type="line"/>
      <point x="516" y="770"/>
      <point x="425" y="687"/>
      <point x="330" y="577" type="curve"/>
      <point x="369" y="529" type="line"/>
      <point x="417" y="552"/>
      <point x="454" y="560"/>
      <point x="499" y="560" type="curve" smooth="yes"/>
      <point x="636" y="560"/>
      <point x="729" y="450"/>
      <point x="729" y="346" type="curve" smooth="yes"/>
      <point x="729" y="172"/>
      <point x="611" y="122"/>
      <point x="493" y="122" type="curve" smooth="yes"/>
      <point x="325" y="122"/>
      <point x="232" y="224"/>
      <point x="232" y="280" type="curve" smooth="yes"/>
      <point x="232" y="310"/>
      <point x="252" y="333"/>
      <point x="288" y="333" type="curve" smooth="yes"/>
      <point x="520" y="333"/>
      <point x="609" y="-34"/>
      <point x="872" y="-34" type="curve"/>
      <point x="892" y="-12"/>
      <point x="943" y="75"/>
      <point x="952" y="105" type="curve"/>
      <point x="676" y="149"/>
      <point x="690" y="466"/>
      <point x="354" y="466" type="curve" smooth="yes"/>
      <point x="172" y="466"/>
      <point x="56" y="329"/>
      <point x="56" y="220" type="curve" smooth="yes"/>
      <point x="56" y="108"/>
      <point x="145" y="-34"/>
      <point x="402" y="-34" type="curve" smooth="yes"/>
      <point x="766" y="-34"/>
      <point x="936" y="303"/>
      <point x="936" y="427" type="curve" smooth="yes"/>
      <point x="936" y="584"/>
      <point x="837" y="694"/>
      <point x="655" y="694" type="curve" smooth="yes"/>
      <point x="607" y="694"/>
      <point x="572" y="697"/>
      <point x="497" y="659" type="curve"/>
      <point x="579" y="654" type="line"/>
      <point x="672" y="752"/>
      <point x="764" y="820"/>
      <point x="886" y="920" type="curve"/>
      <point x="850" y="970" type="line"/>
    </contour>
  </outline>
</glyph>
<glyph name="sha-limb" format="2">
  <advance width="1135"/>
  <unicode hex="1919"/>
  <anchor x="568" y="1050" name="K"/>
  <anchor x="581" y="-100" name="L"/>
  <anchor x="718" y="1050" name="O"/>
  <anchor x="608" y="1050" name="U"/>
  <anchor x="708" y="50" name="V"/>
  <outline>
    <contour>
      <point x="678" y="970" type="line"/>
      <point x="649" y="949"/>
      <point x="614" y="905"/>
      <point x="591" y="875" type="curve"/>
      <point x="621" y="785" type="line"/>
      <point x="976" y="785" type="line"/>
      <point x="1035" y="819"/>
      <point x="1089" y="853"/>
      <point x="1135" y="910" type="curve"/>
      <point x="1089" y="970" type="line"/>
    </contour>
    <contour>
      <point x="838" y="409" type="curve" smooth="yes"/>
      <point x="839" y="488"/>
      <point x="833" y="787"/>
      <point x="833" y="928" type="curve"/>
      <point x="591" y="875" type="line"/>
      <point x="590" y="769"/>
      <point x="597" y="523"/>
      <point x="597" y="421" type="curve" smooth="yes"/>
      <point x="597" y="195"/>
      <point x="564" y="103"/>
      <point x="484" y="103" type="curve" smooth="yes"/>
      <point x="428" y="103"/>
      <point x="391" y="122"/>
      <point x="365" y="147" type="curve" smooth="yes"/>
      <point x="331" y="178"/>
      <point x="329" y="243"/>
      <point x="329" y="313" type="curve" smooth="yes"/>
      <point x="329" y="476"/>
      <point x="330" y="798"/>
      <point x="334" y="960" type="curve"/>
      <point x="292" y="1000" type="line"/>
      <point x="199" y="956"/>
      <point x="148" y="918"/>
      <point x="80" y="868" type="curve"/>
      <point x="84" y="662"/>
      <point x="84" y="407"/>
      <point x="84" y="337" type="curve" smooth="yes"/>
      <point x="84" y="169"/>
      <point x="118" y="86"/>
      <point x="181" y="33" type="curve" smooth="yes"/>
      <point x="234" y="-12"/>
      <point x="297" y="-34"/>
      <point x="413" y="-34" type="curve" smooth="yes"/>
      <point x="620" y="-34"/>
      <point x="836" y="139"/>
    </contour>
  </outline>
</glyph>
<glyph name="ssa-limb" format="2">
  <advance width="915"/>
  <unicode hex="191A"/>
  <anchor x="409" y="1050" name="K"/>
  <anchor x="390" y="-100" name="L"/>
  <anchor x="651" y="1050" name="O"/>
  <anchor x="390" y="1050" name="U"/>
  <anchor x="709" y="50" name="V"/>
  <outline>
    <contour>
      <point x="50" y="568" type="curve" smooth="yes"/>
      <point x="50" y="375"/>
      <point x="151" y="237"/>
      <point x="363" y="237" type="curve" smooth="yes"/>
      <point x="519" y="237"/>
      <point x="806" y="517"/>
      <point x="806" y="678" type="curve" smooth="yes"/>
      <point x="806" y="866"/>
      <point x="630" y="990"/>
      <point x="478" y="990" type="curve" smooth="yes"/>
      <point x="424" y="990"/>
      <point x="346" y="968"/>
      <point x="276" y="920" type="curve" smooth="yes"/>
      <point x="186" y="858"/>
      <point x="50" y="755"/>
    </contour>
    <contour>
      <point x="275" y="641" type="curve" smooth="yes"/>
      <point x="275" y="794"/>
      <point x="357" y="832"/>
      <point x="409" y="832" type="curve" smooth="yes"/>
      <point x="447" y="832"/>
      <point x="591" y="781"/>
      <point x="591" y="618" type="curve" smooth="yes"/>
      <point x="591" y="518"/>
      <point x="503" y="417"/>
      <point x="430" y="417" type="curve" smooth="yes"/>
      <point x="343" y="417"/>
      <point x="275" y="504"/>
    </contour>
    <contour>
      <point x="579" y="836" type="curve"/>
      <point x="577" y="550"/>
      <point x="565" y="260"/>
      <point x="577" y="-4" type="curve"/>
      <point x="579" y="-6"/>
      <point x="627" y="-32"/>
      <point x="636" y="-34" type="curve"/>
      <point x="694" y="-11"/>
      <point x="828" y="75"/>
      <point x="833" y="97" type="curve"/>
      <point x="819" y="345"/>
      <point x="816" y="616"/>
      <point x="826" y="960" type="curve"/>
      <point x="791" y="1000" type="line"/>
      <point x="758" y="978"/>
      <point x="618" y="895"/>
    </contour>
  </outline>
</glyph>
<glyph name="tra-limb" format="2">
  <advance width="1099"/>
  <unicode hex="191E"/>
  <anchor x="580" y="1050" name="K"/>
  <anchor x="570" y="-100" name="L"/>
  <anchor x="830" y="1050" name="O"/>
  <anchor x="570" y="1050" name="U"/>
  <anchor x="960" y="50" name="V"/>
  <outline>
    <contour>
      <point x="769" y="404" type="curve" smooth="yes"/>
      <point x="769" y="277"/>
      <point x="743" y="124"/>
      <point x="496" y="124" type="curve" smooth="yes"/>
      <point x="371" y="124"/>
      <point x="278" y="177"/>
      <point x="278" y="266" type="curve" smooth="yes"/>
      <point x="278" y="294"/>
      <point x="306" y="333"/>
      <point x="352" y="333" type="curve" smooth="yes"/>
      <point x="557" y="333"/>
      <point x="644" y="46"/>
      <point x="976" y="-34" type="curve"/>
      <point x="1005" y="1"/>
      <point x="1041" y="75"/>
      <point x="1055" y="116" type="curve"/>
      <point x="807" y="133"/>
      <point x="728" y="466"/>
      <point x="405" y="466" type="curve" smooth="yes"/>
      <point x="206" y="466"/>
      <point x="115" y="323"/>
      <point x="115" y="220" type="curve" smooth="yes"/>
      <point x="115" y="73"/>
      <point x="218" y="-34"/>
      <point x="440" y="-34" type="curve" smooth="yes"/>
      <point x="748" y="-34"/>
      <point x="999" y="302"/>
      <point x="999" y="502" type="curve" smooth="yes"/>
      <point x="999" y="642"/>
      <point x="909" y="688"/>
      <point x="669" y="688" type="curve" smooth="yes"/>
      <point x="646" y="688"/>
      <point x="598" y="688"/>
      <point x="570" y="688" type="curve"/>
      <point x="570" y="787"/>
      <point x="570" y="861"/>
      <point x="570" y="904" type="curve"/>
      <point x="323" y="904" type="line"/>
      <point x="323" y="868"/>
      <point x="323" y="620"/>
      <point x="323" y="588" type="curve"/>
      <point x="331" y="575"/>
      <point x="346" y="563"/>
      <point x="363" y="548" type="curve"/>
      <point x="445" y="548"/>
      <point x="511" y="548"/>
      <point x="579" y="548" type="curve" smooth="yes"/>
      <point x="666" y="548"/>
      <point x="769" y="520"/>
    </contour>
    <contour>
      <point x="189" y="970" type="line"/>
      <point x="159" y="949"/>
      <point x="63" y="865"/>
      <point x="40" y="835" type="curve"/>
      <point x="79" y="785" type="line"/>
      <point x="877" y="785" type="line"/>
      <point x="926" y="810"/>
      <point x="991" y="864"/>
      <point x="1035" y="920" type="curve"/>
      <point x="1000" y="970" type="line"/>
    </contour>
  </outline>
</glyph>
<glyph name="ikar-limb" format="2">
  <advance width="555"/>
  <unicode hex="1921"/>
  <anchor x="-671" y="1050" name="K"/>
  <outline>
    <contour>
      <point x="137" y="970" type="line"/>
      <point x="111" y="942"/>
      <point x="-6" y="851"/>
      <point x="-32" y="830" type="curve"/>
      <point x="7" y="785" type="line"/>
      <point x="379" y="785" type="line"/>
      <point x="428" y="810"/>
      <point x="521" y="883"/>
      <point x="555" y="919" type="curve"/>
      <point x="520" y="970" type="line"/>
    </contour>
    <contour>
      <point x="-431" y="1264" type="curve" smooth="yes"/>
      <point x="-431" y="1182"/>
      <point x="-378" y="1109"/>
      <point x="-254" y="1000" type="curve"/>
      <point x="-204" y="1012"/>
      <point x="-166" y="1027"/>
      <point x="-142" y="1043" type="curve"/>
      <point x="-187" y="1106"/>
      <point x="-196" y="1157"/>
      <point x="-196" y="1182" type="curve" smooth="yes"/>
      <point x="-196" y="1249"/>
      <point x="-114" y="1274"/>
      <point x="29" y="1274" type="curve" smooth="yes"/>
      <point x="182" y="1274"/>
      <point x="254" y="1246"/>
      <point x="254" y="1182" type="curve" smooth="yes"/>
      <point x="254" y="1154"/>
      <point x="250" y="1088"/>
      <point x="81" y="920" type="curve"/>
      <point x="79" y="919"/>
      <point x="225" y="905"/>
      <point x="255" y="932" type="curve" smooth="yes"/>
      <point x="408" y="1069"/>
      <point x="489" y="1182"/>
      <point x="489" y="1264" type="curve" smooth="yes"/>
      <point x="489" y="1360"/>
      <point x="340" y="1446"/>
      <point x="37" y="1446" type="curve" smooth="yes"/>
      <point x="-269" y="1446"/>
      <point x="-431" y="1358"/>
    </contour>
  </outline>
</glyph>
<glyph name="ekar-limb" format="2">
  <unicode hex="1927"/>
  <anchor x="-260" y="1280" name="K"/>
  <anchor x="-300" y="1050" name="_O"/>
  <outline>
    <contour>
      <point x="-866" y="1392" type="curve"/>
      <point x="-789" y="1308"/>
      <point x="-546" y="1113"/>
      <point x="-392" y="1044" type="curve"/>
      <point x="-361" y="1066"/>
      <point x="-339" y="1085"/>
      <point x="-315" y="1114" type="curve"/>
      <point x="-426" y="1229"/>
      <point x="-628" y="1438"/>
      <point x="-690" y="1533" type="curve"/>
      <point x="-766" y="1509"/>
      <point x="-826" y="1454"/>
    </contour>
  </outline>
</glyph>
<glyph name="subwa-limb" format="2">
  <advance width="526"/>
  <unicode hex="192B"/>
  <anchor x="-133" y="-40" name="G"/>
  <outline>
    <contour>
      <point x="145" y="324" type="curve" smooth="yes"/>
      <point x="44" y="322"/>
      <point x="-75" y="212"/>
      <point x="-175" y="45" type="curve"/>
      <point x="-107" y="-3" type="line"/>
      <point x="-49" y="87"/>
      <point x="41" y="194"/>
      <point x="64" y="194" type="curve" smooth="yes"/>
      <point x="78" y="194"/>
      <point x="82" y="189"/>
      <point x="82" y="173" type="curve" smooth="yes"/>
      <point x="82" y="148"/>
      <point x="34" y="57"/>
      <point x="34" y="-9" type="curve" smooth="yes"/>
      <point x="34" y="-56"/>
      <point x="67" y="-89"/>
      <point x="131" y="-89" type="curve" smooth="yes"/>
      <point x="231" y="-89"/>
      <point x="305" y="-37"/>
      <point x="330" y="49" type="curve"/>
      <point x="314" y="188" type="line"/>
      <point x="308" y="85"/>
      <point x="264" y="49"/>
      <point x="245" y="49" type="curve" smooth="yes"/>
      <point x="226" y="49"/>
      <point x="219" y="63"/>
      <point x="219" y="77" type="curve" smooth="yes"/>
      <point x="219" y="121"/>
      <point x="249" y="174"/>
      <point x="249" y="240" type="curve" smooth="yes"/>
      <point x="249" y="287"/>
      <point x="208" y="325"/>
    </contour>
    <contour>
      <point x="486" y="-35" type="curve"/>
      <point x="473" y="47"/>
      <point x="467" y="120"/>
      <point x="478" y="281" type="curve"/>
      <point x="431" y="323" type="line"/>
      <point x="405" y="305"/>
      <point x="333" y="249"/>
      <point x="315" y="228" type="curve"/>
      <point x="309" y="89"/>
      <point x="314" y="36"/>
      <point x="324" y="-137" type="curve"/>
      <point x="324" y="-137"/>
      <point x="383" y="-176"/>
      <point x="383" y="-176" type="curve"/>
      <point x="408" y="-153"/>
      <point x="469" y="-81"/>
    </contour>
  </outline>
</glyph>
<glyph name="smallanusvara-limb" format="2">
  <unicode hex="1932"/>
  <anchor x="-561" y="-80" name="_L"/>
  <outline>
    <contour>
      <point x="-340" y="-292" type="curve"/>
      <point x="-340" y="-186"/>
      <point x="-406" y="-104"/>
      <point x="-509" y="-104" type="curve"/>
      <point x="-644" y="-104"/>
      <point x="-788" y="-235"/>
      <point x="-788" y="-363" type="curve"/>
      <point x="-788" y="-474"/>
      <point x="-712" y="-542"/>
      <point x="-624" y="-542" type="curve"/>
      <point x="-480" y="-542"/>
      <point x="-340" y="-401"/>
    </contour>
    <contour>
      <point x="-643" y="-314" type="curve"/>
      <point x="-643" y="-269"/>
      <point x="-616" y="-227"/>
      <point x="-583" y="-227" type="curve"/>
      <point x="-531" y="-227"/>
      <point x="-489" y="-259"/>
      <point x="-489" y="-326" type="curve"/>
      <point x="-489" y="-372"/>
      <point x="-507" y="-412"/>
      <point x="-549" y="-412" type="curve"/>
      <point x="-598" y="-412"/>
      <point x="-643" y="-378"/>
    </contour>
  </outline>
</glyph>
<glyph name="smallna-limb" format="2">
  <advance width="947"/>
  <unicode hex="1934"/>
  <anchor x="463" y="-100" name="L"/>
  <outline>
    <contour>
      <point x="-41" y="970" type="line"/>
      <point x="-69" y="949"/>
      <point x="-177" y="850"/>
      <point x="-200" y="820" type="curve"/>
      <point x="-170" y="785" type="line"/>
      <point x="-21" y="785" type="line" smooth="yes"/>
      <point x="38" y="785"/>
      <point x="74" y="760"/>
      <point x="107" y="611" type="curve" smooth="yes"/>
      <point x="149" y="423"/>
      <point x="229" y="327"/>
      <point x="463" y="327" type="curve" smooth="yes"/>
      <point x="754" y="327"/>
      <point x="887" y="522"/>
      <point x="887" y="677" type="curve" smooth="yes"/>
      <point x="887" y="777"/>
      <point x="826" y="860"/>
      <point x="691" y="860" type="curve" smooth="yes"/>
      <point x="539" y="860"/>
      <point x="414" y="720"/>
      <point x="414" y="595" type="curve" smooth="yes"/>
      <point x="414" y="538"/>
      <point x="440" y="484"/>
      <point x="501" y="448" type="curve"/>
      <point x="549" y="442" type="line"/>
      <point x="569" y="441"/>
      <point x="660" y="508"/>
      <point x="660" y="513" type="curve"/>
      <point x="590" y="495"/>
      <point x="548" y="545"/>
      <point x="548" y="603" type="curve" smooth="yes"/>
      <point x="548" y="649"/>
      <point x="576" y="694"/>
      <point x="633" y="694" type="curve" smooth="yes"/>
      <point x="669" y="694"/>
      <point x="705" y="661"/>
      <point x="705" y="611" type="curve" smooth="yes"/>
      <point x="705" y="569"/>
      <point x="677" y="489"/>
      <point x="551" y="485" type="curve" smooth="yes"/>
      <point x="374" y="479"/>
      <point x="337" y="534"/>
      <point x="297" y="713" type="curve" smooth="yes"/>
      <point x="269" y="840"/>
      <point x="228" y="970"/>
      <point x="58" y="970" type="curve" smooth="yes"/>
    </contour>
  </outline>
</glyph>
<glyph name="smallpa-limb" format="2">
  <advance width="931"/>
  <unicode hex="1935"/>
  <anchor x="425" y="-100" name="L"/>
  <outline>
    <contour>
      <point x="607" y="877" type="curve"/>
      <point x="605" y="591"/>
      <point x="594" y="268"/>
      <point x="606" y="4" type="curve"/>
      <point x="606" y="4"/>
      <point x="658" y="-33"/>
      <point x="663" y="-34" type="curve"/>
      <point x="782" y="17"/>
      <point x="836" y="67"/>
      <point x="848" y="97" type="curve"/>
      <point x="834" y="345"/>
      <point x="831" y="616"/>
      <point x="841" y="960" type="curve"/>
      <point x="806" y="1000" type="line"/>
      <point x="772" y="988"/>
      <point x="646" y="936"/>
    </contour>
    <contour>
      <point x="-41" y="970" type="line"/>
      <point x="-71" y="949"/>
      <point x="-177" y="860"/>
      <point x="-200" y="830" type="curve"/>
      <point x="-161" y="785" type="line"/>
      <point x="14" y="785" type="line" smooth="yes"/>
      <point x="215" y="785"/>
      <point x="42" y="369"/>
      <point x="362" y="369" type="curve" smooth="yes"/>
      <point x="597" y="369"/>
      <point x="768" y="605"/>
      <point x="767" y="754" type="curve" smooth="yes"/>
      <point x="766" y="972"/>
      <point x="609" y="822"/>
      <point x="609" y="799" type="curve" smooth="yes"/>
      <point x="609" y="668"/>
      <point x="570" y="533"/>
      <point x="454" y="533" type="curve" smooth="yes"/>
      <point x="281" y="533"/>
      <point x="440" y="970"/>
      <point x="97" y="970" type="curve" smooth="yes"/>
    </contour>
  </outline>
</glyph>
<glyph name="smallra-limb" format="2">
  <advance width="419"/>
  <unicode hex="1937"/>
  <outline>
    <contour>
      <point x="62" y="29" type="curve"/>
      <point x="148" y="-38"/>
      <point x="257" y="-160"/>
      <point x="313" y="-270" type="curve"/>
      <point x="375" y="-228"/>
      <point x="399" y="-210"/>
      <point x="419" y="-193" type="curve"/>
      <point x="380" y="-66"/>
      <point x="333" y="79"/>
      <point x="251" y="163" type="curve"/>
      <point x="185" y="151"/>
      <point x="84" y="73"/>
    </contour>
  </outline>
</glyph>
<glyph name="sai-limb" format="2">
  <unicode hex="193B"/>
  <anchor x="-533" y="-50" name="_L"/>
  <outline>
    <contour>
      <point x="-950" y="-80" type="line"/>
      <point x="-989" y="-101"/>
      <point x="-1066" y="-181"/>
      <point x="-1089" y="-215" type="curve"/>
      <point x="-1050" y="-265" type="line"/>
      <point x="-208" y="-265" type="line"/>
      <point x="-147" y="-228"/>
      <point x="-81" y="-171"/>
      <point x="-50" y="-130" type="curve"/>
      <point x="-85" y="-80" type="line"/>
    </contour>
  </outline>
</glyph>
<glyph name="loo-limb" format="2">
  <advance width="1036"/>
  <unicode hex="1940"/>
  <outline>
    <contour>
      <point x="524" y="1000" type="line"/>
      <point x="184" y="850"/>
      <point x="50" y="601"/>
      <point x="50" y="392" type="curve" smooth="yes"/>
      <point x="50" y="77"/>
      <point x="299" y="-34"/>
      <point x="486" y="-34" type="curve" smooth="yes"/>
      <point x="844" y="-34"/>
      <point x="996" y="213"/>
      <point x="996" y="357" type="curve" smooth="yes"/>
      <point x="996" y="498"/>
      <point x="927" y="589"/>
      <point x="753" y="589" type="curve" smooth="yes"/>
      <point x="574" y="589"/>
      <point x="412" y="421"/>
      <point x="412" y="277" type="curve" smooth="yes"/>
      <point x="412" y="189"/>
      <point x="508" y="116"/>
      <point x="614" y="98" type="curve"/>
      <point x="770" y="186" type="line"/>
      <point x="663" y="183"/>
      <point x="603" y="264"/>
      <point x="606" y="347" type="curve" smooth="yes"/>
      <point x="608" y="413"/>
      <point x="651" y="450"/>
      <point x="695" y="450" type="curve" smooth="yes"/>
      <point x="774" y="450"/>
      <point x="810" y="364"/>
      <point x="810" y="290" type="curve" smooth="yes"/>
      <point x="810" y="217"/>
      <point x="708" y="146"/>
      <point x="544" y="146" type="curve" smooth="yes"/>
      <point x="432" y="146"/>
      <point x="287" y="205"/>
      <point x="283" y="442" type="curve" smooth="yes"/>
      <point x="280" y="636"/>
      <point x="392" y="795"/>
      <point x="588" y="922" type="curve"/>
    </contour>
  </outline>
</glyph>
<glyph name="three-limb" format="2">
  <advance width="920"/>
  <unicode hex="1949"/>
  <outline>
    <contour>
      <point x="471" y="995" type="curve" smooth="yes"/>
      <point x="270" y="995"/>
      <point x="98" y="836"/>
      <point x="98" y="664" type="curve" smooth="yes"/>
      <point x="98" y="542"/>
      <point x="172" y="456"/>
      <point x="415" y="427" type="curve" smooth="yes"/>
      <point x="613" y="403"/>
      <point x="664" y="319"/>
      <point x="664" y="237" type="curve" smooth="yes"/>
      <point x="664" y="174"/>
      <point x="593" y="123"/>
      <point x="499" y="123" type="curve" smooth="yes"/>
      <point x="372" y="123"/>
      <point x="282" y="215"/>
      <point x="236" y="328" type="curve"/>
      <point x="175" y="334" type="line"/>
      <point x="138" y="268"/>
      <point x="96" y="141"/>
      <point x="90" y="114" type="curve"/>
      <point x="151" y="25"/>
      <point x="318" y="-34"/>
      <point x="456" y="-34" type="curve" smooth="yes"/>
      <point x="624" y="-34"/>
      <point x="860" y="111"/>
      <point x="860" y="320" type="curve" smooth="yes"/>
      <point x="860" y="472"/>
      <point x="776" y="567"/>
      <point x="579" y="594" type="curve" smooth="yes"/>
      <point x="338" y="627"/>
      <point x="294" y="673"/>
      <point x="294" y="750" type="curve" smooth="yes"/>
      <point x="294" y="804"/>
      <point x="354" y="847"/>
      <point x="423" y="847" type="curve" smooth="yes"/>
      <point x="482" y="847"/>
      <point x="554" y="813"/>
      <point x="614" y="752" type="curve"/>
      <point x="652" y="748" type="line"/>
      <point x="678" y="772"/>
      <point x="754" y="866"/>
      <point x="778" y="902" type="curve"/>
      <point x="712" y="960"/>
      <point x="612" y="995"/>
    </contour>
  </outline>
</glyph>
<glyph name="eight-limb" format="2">
  <advance width="925"/>
  <unicode hex="194E"/>
  <outline>
    <contour>
      <point x="875" y="951" type="curve"/>
      <point x="831" y="996" type="line"/>
      <point x="784" y="979"/>
      <point x="690" y="941"/>
      <point x="657" y="917" type="curve"/>
      <point x="616" y="747"/>
      <point x="535" y="388"/>
      <point x="474" y="236" type="curve"/>
      <point x="536" y="229" type="line"/>
      <point x="471" y="446"/>
      <point x="361" y="819"/>
      <point x="285" y="970" type="curve"/>
      <point x="278" y="974"/>
      <point x="258" y="992"/>
      <point x="245" y="996" type="curve"/>
      <point x="140" y="954"/>
      <point x="96" y="912"/>
      <point x="50" y="867" type="curve"/>
      <point x="130" y="681"/>
      <point x="291" y="242"/>
      <point x="345" y="4" type="curve"/>
      <point x="406" y="-38" type="line"/>
      <point x="453" y="-7"/>
      <point x="580" y="56"/>
      <point x="589" y="94" type="curve"/>
      <point x="655" y="360"/>
      <point x="756" y="662"/>
    </contour>
  </outline>
</glyph>
<glyph name="endash" format="2">
  <advance width="1051"/>
  <unicode hex="2013"/>
  <outline>
    <contour>
      <point x="160" y="565" type="line"/>
      <point x="131" y="545"/>
      <point x="54" y="456"/>
      <point x="31" y="427" type="curve"/>
      <point x="71" y="381" type="line"/>
      <point x="864" y="381" type="line"/>
      <point x="913" y="406"/>
      <point x="977" y="478"/>
      <point x="1013" y="515" type="curve"/>
      <point x="977" y="565" type="line"/>
    </contour>
  </outline>
</glyph>
<glyph name="daggerdbl" format="2">
  <advance width="952"/>
  <unicode hex="2021"/>
  <outline>
    <contour>
      <point x="326" y="-5" type="curve"/>
      <point x="376" y="-38" type="line"/>
      <point x="418" y="-20"/>
      <point x="578" y="56"/>
      <point x="626" y="87" type="curve"/>
      <point x="561" y="192"/>
      <point x="530" y="250"/>
      <point x="530" y="389" type="curve" smooth="yes"/>
      <point x="530" y="478"/>
      <point x="556" y="577"/>
      <point x="612" y="681" type="curve"/>
      <point x="556" y="732"/>
      <point x="395" y="732"/>
      <point x="340" y="681" type="curve"/>
      <point x="396" y="578"/>
      <point x="422" y="479"/>
      <point x="422" y="390" type="curve" smooth="yes"/>
      <point x="422" y="249"/>
      <point x="387" y="128"/>
    </contour>
    <contour>
      <point x="47" y="299" type="curve"/>
      <point x="80" y="249" type="line"/>
      <point x="207" y="307"/>
      <point x="341" y="341"/>
      <point x="478" y="344" type="curve"/>
      <point x="603" y="342"/>
      <point x="679" y="303"/>
      <point x="773" y="249" type="curve"/>
      <point x="804" y="297"/>
      <point x="888" y="459"/>
      <point x="906" y="501" type="curve"/>
      <point x="873" y="552" type="line"/>
      <point x="746" y="491"/>
      <point x="613" y="459"/>
      <point x="476" y="455" type="curve"/>
      <point x="350" y="459"/>
      <point x="276" y="489"/>
      <point x="180" y="552" type="curve"/>
      <point x="149" y="503"/>
      <point x="65" y="342"/>
    </contour>
    <contour>
      <point x="626" y="1367" type="curve"/>
      <point x="576" y="1400" type="line"/>
      <point x="534" y="1382"/>
      <point x="374" y="1306"/>
      <point x="326" y="1275" type="curve"/>
      <point x="386" y="1170"/>
      <point x="422" y="1103"/>
      <point x="422" y="964" type="curve" smooth="yes"/>
      <point x="422" y="866"/>
      <point x="396" y="785"/>
      <point x="340" y="681" type="curve"/>
      <point x="392" y="625"/>
      <point x="559" y="624"/>
      <point x="612" y="681" type="curve"/>
      <point x="556" y="784"/>
      <point x="528" y="865"/>
      <point x="530" y="963" type="curve" smooth="yes"/>
      <point x="533" y="1104"/>
      <point x="570" y="1235"/>
    </contour>
    <contour>
      <point x="906" y="1063" type="curve"/>
      <point x="873" y="1113" type="line"/>
      <point x="746" y="1053"/>
      <point x="612" y="1022"/>
      <point x="475" y="1018" type="curve"/>
      <point x="350" y="1021"/>
      <point x="275" y="1051"/>
      <point x="180" y="1113" type="curve"/>
      <point x="149" y="1065"/>
      <point x="65" y="903"/>
      <point x="47" y="861" type="curve"/>
      <point x="80" y="811" type="line"/>
      <point x="207" y="868"/>
      <point x="340" y="903"/>
      <point x="477" y="907" type="curve"/>
      <point x="603" y="903"/>
      <point x="677" y="870"/>
      <point x="773" y="811" type="curve"/>
      <point x="804" y="859"/>
      <point x="888" y="1021"/>
    </contour>
  </outline>
</glyph>
<glyph name="perthousand" format="2">
  <advance width="2093"/>
  <unicode hex="2030"/>
  <outline>
    <contour>
      <point x="2053" y="293" type="curve" smooth="yes"/>
      <point x="2053" y="471"/>
      <point x="1944" y="617"/>
      <point x="1748" y="617" type="curve" smooth="yes"/>
      <point x="1546" y="617"/>
      <point x="1430" y="469"/>
      <point x="1430" y="293" type="curve" smooth="yes"/>
      <point x="1430" y="117"/>
      <point x="1545" y="-29"/>
      <point x="1735" y="-29" type="curve" smooth="yes"/>
      <point x="1926" y="-29"/>
      <point x="2053" y="117"/>
    </contour>
    <contour>
      <point x="1378" y="293" type="curve" smooth="yes"/>
      <point x="1378" y="471"/>
      <point x="1270" y="617"/>
      <point x="1073" y="617" type="curve" smooth="yes"/>
      <point x="871" y="617"/>
      <point x="755" y="469"/>
      <point x="755" y="293" type="curve" smooth="yes"/>
      <point x="755" y="117"/>
      <point x="870" y="-29"/>
      <point x="1061" y="-29" type="curve" smooth="yes"/>
      <point x="1251" y="-29"/>
      <point x="1378" y="117"/>
    </contour>
    <contour>
      <point x="355" y="3" type="curve"/>
      <point x="1225" y="1142" type="line"/>
      <point x="1201" y="1168" type="line"/>
      <point x="1174" y="1163"/>
      <point x="1086" y="1148"/>
      <point x="1062" y="1138" type="curve"/>
      <point x="188" y="0" type="line"/>
      <point x="212" y="-28" type="line"/>
      <point x="245" y="-20"/>
      <point x="326" y="-11"/>
    </contour>
    <contour>
      <point x="666" y="849" type="curve" smooth="yes"/>
      <point x="666" y="1026"/>
      <point x="558" y="1172"/>
      <point x="361" y="1172" type="curve" smooth="yes"/>
      <point x="159" y="1172"/>
      <point x="43" y="1025"/>
      <point x="43" y="849" type="curve" smooth="yes"/>
      <point x="43" y="673"/>
      <point x="158" y="526"/>
      <point x="349" y="526" type="curve" smooth="yes"/>
      <point x="539" y="526"/>
      <point x="666" y="673"/>
    </contour>
    <contour>
      <point x="1842" y="274" type="curve" smooth="yes"/>
      <point x="1842" y="102"/>
      <point x="1814" y="40"/>
      <point x="1748" y="40" type="curve" smooth="yes"/>
      <point x="1675" y="40"/>
      <point x="1641" y="129"/>
      <point x="1641" y="315" type="curve" smooth="yes"/>
      <point x="1641" y="486"/>
      <point x="1671" y="548"/>
      <point x="1735" y="548" type="curve" smooth="yes"/>
      <point x="1799" y="548"/>
      <point x="1842" y="461"/>
    </contour>
    <contour>
      <point x="1168" y="274" type="curve" smooth="yes"/>
      <point x="1168" y="102"/>
      <point x="1139" y="40"/>
      <point x="1073" y="40" type="curve" smooth="yes"/>
      <point x="1001" y="40"/>
      <point x="966" y="129"/>
      <point x="966" y="315" type="curve" smooth="yes"/>
      <point x="966" y="486"/>
      <point x="996" y="548"/>
      <point x="1061" y="548" type="curve" smooth="yes"/>
      <point x="1124" y="548"/>
      <point x="1168" y="461"/>
    </contour>
    <contour>
      <point x="455" y="830" type="curve" smooth="yes"/>
      <point x="455" y="657"/>
      <point x="427" y="595"/>
      <point x="361" y="595" type="curve" smooth="yes"/>
      <point x="289" y="595"/>
      <point x="254" y="684"/>
      <point x="254" y="870" type="curve" smooth="yes"/>
      <point x="254" y="1042"/>
      <point x="284" y="1103"/>
      <point x="349" y="1103" type="curve" smooth="yes"/>
      <point x="412" y="1103"/>
      <point x="455" y="1016"/>
    </contour>
  </outline>
</glyph>
<glyph name="rupee" format="2">
  <advance width="1387"/>
  <unicode hex="20A8"/>
  <outline>
    <contour>
      <point x="1073" y="-28" type="curve" smooth="yes"/>
      <point x="1168" y="-28"/>
      <point x="1360" y="-6"/>
      <point x="1360" y="204" type="curve" smooth="yes"/>
      <point x="1360" y="315"/>
      <point x="1264" y="367"/>
      <point x="1178" y="411" type="curve" smooth="yes"/>
      <point x="1068" y="469"/>
      <point x="1009" y="496"/>
      <point x="1009" y="560" type="curve" smooth="yes"/>
      <point x="1009" y="601"/>
      <point x="1040" y="628"/>
      <point x="1098" y="628" type="curve" smooth="yes"/>
      <point x="1167" y="628"/>
      <point x="1212" y="571"/>
      <point x="1229" y="479" type="curve"/>
      <point x="1288" y="473" type="line"/>
      <point x="1316" y="511"/>
      <point x="1346" y="642"/>
      <point x="1332" y="653" type="curve"/>
      <point x="1286" y="687"/>
      <point x="1202" y="710"/>
      <point x="1111" y="710" type="curve" smooth="yes"/>
      <point x="970" y="710"/>
      <point x="842" y="632"/>
      <point x="842" y="508" type="curve" smooth="yes"/>
      <point x="842" y="413"/>
      <point x="936" y="357"/>
      <point x="1019" y="313" type="curve" smooth="yes"/>
      <point x="1108" y="265"/>
      <point x="1193" y="219"/>
      <point x="1193" y="140" type="curve" smooth="yes"/>
      <point x="1193" y="85"/>
      <point x="1129" y="59"/>
      <point x="1077" y="59" type="curve" smooth="yes"/>
      <point x="1020" y="59"/>
      <point x="979" y="81"/>
      <point x="939" y="134" type="curve"/>
      <point x="625" y="518" type="line"/>
      <point x="793" y="568"/>
      <point x="900" y="695"/>
      <point x="900" y="880" type="curve" smooth="yes"/>
      <point x="900" y="1042"/>
      <point x="789" y="1166"/>
      <point x="509" y="1166" type="curve" smooth="yes"/>
      <point x="325" y="1166"/>
      <point x="155" y="1139"/>
      <point x="19" y="1110" type="curve"/>
      <point x="32" y="1013" type="line"/>
      <point x="70" y="1019"/>
      <point x="114" y="1025"/>
      <point x="160" y="1031" type="curve"/>
      <point x="160" y="136" type="line" smooth="yes"/>
      <point x="160" y="119"/>
      <point x="118" y="96"/>
      <point x="34" y="79" type="curve"/>
      <point x="34" y="0" type="line"/>
      <point x="530" y="0" type="line"/>
      <point x="530" y="79" type="line"/>
      <point x="400" y="100"/>
      <point x="376" y="121"/>
      <point x="376" y="136" type="curve" smooth="yes"/>
      <point x="376" y="501" type="line"/>
      <point x="402" y="497"/>
      <point x="427" y="495"/>
      <point x="451" y="495" type="curve"/>
      <point x="713" y="37" type="line" smooth="yes"/>
      <point x="738" y="-8"/>
      <point x="872" y="-28"/>
    </contour>
    <contour>
      <point x="439" y="612" type="curve" smooth="yes"/>
      <point x="417" y="612"/>
      <point x="399" y="613"/>
      <point x="376" y="616" type="curve"/>
      <point x="376" y="1055" type="line"/>
      <point x="409" y="1058"/>
      <point x="439" y="1059"/>
      <point x="465" y="1059" type="curve" smooth="yes"/>
      <point x="613" y="1059"/>
      <point x="662" y="960"/>
      <point x="662" y="850" type="curve" smooth="yes"/>
      <point x="662" y="703"/>
      <point x="598" y="612"/>
    </contour>
  </outline>
</glyph>
<glyph name="Euro" format="2">
  <advance width="994"/>
  <unicode hex="20AC"/>
  <outline>
    <contour>
      <point x="942" y="171" type="curve"/>
      <point x="925" y="196"/>
      <point x="908" y="221"/>
      <point x="888" y="242" type="curve"/>
      <point x="760" y="126"/>
      <point x="692" y="114"/>
      <point x="628" y="114" type="curve" smooth="yes"/>
      <point x="517" y="114"/>
      <point x="375" y="210"/>
      <point x="375" y="566" type="curve" smooth="yes"/>
      <point x="375" y="975"/>
      <point x="482" y="1036"/>
      <point x="571" y="1036" type="curve" smooth="yes"/>
      <point x="658" y="1036"/>
      <point x="724" y="982"/>
      <point x="779" y="878" type="curve"/>
      <point x="849" y="863" type="line"/>
      <point x="878" y="892"/>
      <point x="966" y="1062"/>
      <point x="952" y="1074" type="curve" smooth="yes"/>
      <point x="887" y="1126"/>
      <point x="765" y="1168"/>
      <point x="640" y="1168" type="curve" smooth="yes"/>
      <point x="311" y="1168"/>
      <point x="108" y="977"/>
      <point x="108" y="559" type="curve" smooth="yes"/>
      <point x="108" y="174"/>
      <point x="327" y="-28"/>
      <point x="560" y="-28" type="curve" smooth="yes"/>
      <point x="670" y="-28"/>
      <point x="792" y="-1"/>
    </contour>
    <contour>
      <point x="661" y="404" type="line"/>
      <point x="693" y="496" type="line"/>
      <point x="661" y="527" type="line"/>
      <point x="43" y="527" type="line"/>
      <point x="36" y="507"/>
      <point x="19" y="456"/>
      <point x="13" y="437" type="curve"/>
      <point x="43" y="404" type="line"/>
    </contour>
    <contour>
      <point x="726" y="631" type="line"/>
      <point x="759" y="723" type="line"/>
      <point x="726" y="754" type="line"/>
      <point x="71" y="754" type="line"/>
      <point x="64" y="734"/>
      <point x="47" y="683"/>
      <point x="41" y="664" type="curve"/>
      <point x="71" y="631" type="line"/>
    </contour>
  </outline>
</glyph>
<glyph name="trademark" format="2">
  <advance width="1183"/>
  <unicode hex="2122"/>
  <outline>
    <contour>
      <point x="1134" y="1155" type="curve"/>
      <point x="1134" y="1193" type="line"/>
      <point x="994" y="1193" type="line" smooth="yes"/>
      <point x="984" y="1193"/>
      <point x="978" y="1191"/>
      <point x="965" y="1164" type="curve"/>
      <point x="818" y="895" type="line"/>
      <point x="677" y="1164" type="line" smooth="yes"/>
      <point x="665" y="1188"/>
      <point x="659" y="1193"/>
      <point x="648" y="1193" type="curve" smooth="yes"/>
      <point x="504" y="1193" type="line"/>
      <point x="504" y="1155" type="line"/>
      <point x="519" y="1155"/>
      <point x="539" y="1152"/>
      <point x="558" y="1144" type="curve"/>
      <point x="554" y="822" type="line" smooth="yes"/>
      <point x="554" y="815"/>
      <point x="536" y="807"/>
      <point x="500" y="801" type="curve"/>
      <point x="500" y="763" type="line"/>
      <point x="666" y="763" type="line"/>
      <point x="666" y="801" type="line"/>
      <point x="629" y="807"/>
      <point x="614" y="816"/>
      <point x="614" y="822" type="curve" smooth="yes"/>
      <point x="617" y="1069" type="line"/>
      <point x="778" y="763" type="line"/>
      <point x="820" y="763" type="line"/>
      <point x="986" y="1068" type="line"/>
      <point x="989" y="822" type="line" smooth="yes"/>
      <point x="989" y="815"/>
      <point x="968" y="807"/>
      <point x="932" y="801" type="curve"/>
      <point x="932" y="763" type="line"/>
      <point x="1146" y="763" type="line"/>
      <point x="1146" y="801" type="line"/>
      <point x="1108" y="807"/>
      <point x="1089" y="816"/>
      <point x="1089" y="822" type="curve" smooth="yes"/>
      <point x="1085" y="1147" type="line"/>
      <point x="1104" y="1152"/>
      <point x="1122" y="1155"/>
    </contour>
    <contour>
      <point x="155" y="763" type="line"/>
      <point x="386" y="763" type="line"/>
      <point x="386" y="801" type="line"/>
      <point x="337" y="810"/>
      <point x="325" y="820"/>
      <point x="325" y="826" type="curve" smooth="yes"/>
      <point x="325" y="1139" type="line"/>
      <point x="417" y="1139" type="line" smooth="yes"/>
      <point x="439" y="1139"/>
      <point x="439" y="1110"/>
      <point x="450" y="1067" type="curve"/>
      <point x="483" y="1067" type="line"/>
      <point x="490" y="1095"/>
      <point x="498" y="1158"/>
      <point x="499" y="1181" type="curve"/>
      <point x="483" y="1193" type="line"/>
      <point x="54" y="1193" type="line"/>
      <point x="49" y="1168"/>
      <point x="40" y="1100"/>
      <point x="37" y="1074" type="curve"/>
      <point x="70" y="1064" type="line"/>
      <point x="94" y="1117"/>
      <point x="105" y="1139"/>
      <point x="121" y="1139" type="curve" smooth="yes"/>
      <point x="215" y="1139" type="line"/>
      <point x="215" y="826" type="line" smooth="yes"/>
      <point x="215" y="819"/>
      <point x="202" y="810"/>
      <point x="155" y="801" type="curve"/>
    </contour>
  </outline>
</glyph>
<glyph name="Delta" format="2">
  <advance width="1193"/>
  <unicode hex="2206"/>
  <outline>
    <contour>
      <point x="1108" y="0" type="line"/>
      <point x="1138" y="58" type="line"/>
      <point x="1138" y="58"/>
      <point x="817" y="869"/>
      <point x="672" y="1246" type="curve"/>
      <point x="587" y="1213"/>
      <point x="506" y="1179"/>
      <point x="432" y="1132" type="curve"/>
      <point x="313" y="804"/>
      <point x="37" y="58"/>
      <point x="37" y="58" type="curve"/>
      <point x="60" y="0" type="line"/>
    </contour>
    <contour>
      <point x="816" y="195" type="curve"/>
      <point x="833" y="147"/>
      <point x="835" y="147"/>
      <point x="712" y="147" type="curve" smooth="yes"/>
      <point x="349" y="147" type="line" smooth="yes"/>
      <point x="230" y="147"/>
      <point x="230" y="147"/>
      <point x="246" y="195" type="curve"/>
      <point x="246" y="195"/>
      <point x="404" y="627"/>
      <point x="521" y="947" type="curve"/>
      <point x="632" y="662"/>
      <point x="816" y="195"/>
    </contour>
  </outline>
</glyph>
<glyph name="product" format="2">
  <advance width="1283"/>
  <unicode hex="220F"/>
  <outline>
    <contour>
      <point x="37" y="0" type="line"/>
      <point x="553" y="0" type="line"/>
      <point x="553" y="79" type="line"/>
      <point x="462" y="96"/>
      <point x="426" y="121"/>
      <point x="426" y="136" type="curve" smooth="yes"/>
      <point x="426" y="1009" type="line" smooth="yes"/>
      <point x="426" y="1039"/>
      <point x="468" y="1073"/>
      <point x="557" y="1075" type="curve"/>
      <point x="693" y="1075" type="line" smooth="yes"/>
      <point x="789" y="1075"/>
      <point x="839" y="1039"/>
      <point x="839" y="1009" type="curve" smooth="yes"/>
      <point x="839" y="136" type="line" smooth="yes"/>
      <point x="839" y="119"/>
      <point x="796" y="96"/>
      <point x="712" y="79" type="curve"/>
      <point x="712" y="0" type="line"/>
      <point x="1228" y="0" type="line"/>
      <point x="1228" y="79" type="line"/>
      <point x="1138" y="96"/>
      <point x="1101" y="121"/>
      <point x="1101" y="136" type="curve" smooth="yes"/>
      <point x="1101" y="1055" type="line" smooth="yes"/>
      <point x="1101" y="1073"/>
      <point x="1143" y="1095"/>
      <point x="1228" y="1113" type="curve"/>
      <point x="1228" y="1192" type="line"/>
      <point x="37" y="1192" type="line"/>
      <point x="37" y="1113" type="line"/>
      <point x="126" y="1095"/>
      <point x="164" y="1070"/>
      <point x="164" y="1055" type="curve" smooth="yes"/>
      <point x="164" y="136" type="line" smooth="yes"/>
      <point x="164" y="119"/>
      <point x="121" y="96"/>
      <point x="37" y="79" type="curve"/>
    </contour>
  </outline>
</glyph>
<glyph name="greaterequal" format="2">
  <advance width="823"/>
  <unicode hex="2265"/>
  <outline>
    <contour>
      <point x="780" y="658" type="curve"/>
      <point x="750" y="698" type="line"/>
      <point x="149" y="913" type="line"/>
      <point x="113" y="891"/>
      <point x="75" y="848"/>
      <point x="50" y="825" type="curve"/>
      <point x="73" y="784" type="line"/>
      <point x="591" y="600" type="line"/>
      <point x="591" y="641" type="line"/>
      <point x="83" y="457" type="line"/>
      <point x="76" y="435"/>
      <point x="56" y="360"/>
      <point x="50" y="335" type="curve"/>
      <point x="80" y="304" type="line"/>
      <point x="745" y="545" type="line"/>
      <point x="760" y="580"/>
      <point x="772" y="624"/>
    </contour>
    <contour>
      <point x="780" y="234" type="curve"/>
      <point x="750" y="264" type="line"/>
      <point x="88" y="264" type="line"/>
      <point x="77" y="241"/>
      <point x="50" y="183"/>
      <point x="44" y="158" type="curve"/>
      <point x="74" y="128" type="line"/>
      <point x="736" y="128" type="line"/>
      <point x="745" y="147"/>
      <point x="773" y="209"/>
    </contour>
  </outline>
</glyph>
<glyph name="akar-limb.widC" format="2">
  <anchor x="-301" y="1285" name="U"/>
  <anchor x="-585" y="1025" name="_U"/>
  <outline>
    <contour>
      <point x="-919" y="1254" type="curve"/>
      <point x="-821" y="1215" type="line"/>
      <point x="-679" y="1259"/>
      <point x="-652" y="1327"/>
      <point x="-652" y="1375" type="curve" smooth="yes"/>
      <point x="-652" y="1475"/>
      <point x="-729" y="1518"/>
      <point x="-821" y="1518" type="curve" smooth="yes"/>
      <point x="-1035" y="1518"/>
      <point x="-1152" y="1373"/>
      <point x="-1152" y="1248" type="curve" smooth="yes"/>
      <point x="-1152" y="1153"/>
      <point x="-1085" y="1070"/>
      <point x="-944" y="1070" type="curve" smooth="yes"/>
      <point x="-225" y="1070" type="line"/>
      <point x="-171" y="1095"/>
      <point x="-85" y="1169"/>
      <point x="-50" y="1205" type="curve"/>
      <point x="-84" y="1255" type="line"/>
      <point x="-859" y="1255" type="line"/>
      <point x="-905" y="1250"/>
      <point x="-976" y="1248"/>
      <point x="-976" y="1315" type="curve" smooth="yes"/>
      <point x="-976" y="1361"/>
      <point x="-940" y="1396"/>
      <point x="-905" y="1396" type="curve" smooth="yes"/>
      <point x="-880" y="1396"/>
      <point x="-845" y="1380"/>
      <point x="-845" y="1332" type="curve" smooth="yes"/>
      <point x="-845" y="1277"/>
      <point x="-884" y="1255"/>
    </contour>
  </outline>
</glyph>
<glyph name="ba_subra_ukar-limb" format="2">
  <advance width="1179"/>
  <anchor x="580" y="1050" name="K"/>
  <outline>
    <contour>
      <point x="189" y="970" type="line"/>
      <point x="140" y="940"/>
      <point x="85" y="881"/>
      <point x="50" y="835" type="curve"/>
      <point x="89" y="785" type="line"/>
      <point x="991" y="785" type="line"/>
      <point x="1045" y="820"/>
      <point x="1115" y="874"/>
      <point x="1149" y="920" type="curve"/>
      <point x="1114" y="970" type="line"/>
    </contour>
    <contour>
      <point x="1113" y="339" type="curve" smooth="yes"/>
      <point x="1113" y="437"/>
      <point x="1051" y="546"/>
      <point x="887" y="546" type="curve" smooth="yes"/>
      <point x="708" y="546"/>
      <point x="542" y="402"/>
      <point x="542" y="267" type="curve" smooth="yes"/>
      <point x="542" y="207"/>
      <point x="575" y="148"/>
      <point x="655" y="105" type="curve"/>
      <point x="816" y="124"/>
      <point x="827" y="118"/>
      <point x="901" y="180" type="curve"/>
      <point x="758" y="180"/>
      <point x="722" y="226"/>
      <point x="725" y="323" type="curve" smooth="yes"/>
      <point x="727" y="375"/>
      <point x="772" y="410"/>
      <point x="821" y="410" type="curve" smooth="yes"/>
      <point x="870" y="410"/>
      <point x="923" y="376"/>
      <point x="923" y="272" type="curve" smooth="yes"/>
      <point x="923" y="226"/>
      <point x="864" y="139"/>
      <point x="747" y="139" type="curve" smooth="yes"/>
      <point x="563" y="139"/>
      <point x="355" y="200"/>
      <point x="351" y="426" type="curve"/>
      <point x="348" y="634"/>
      <point x="491" y="808"/>
      <point x="712" y="872" type="curve"/>
      <point x="574" y="884" type="line"/>
      <point x="304" y="828"/>
      <point x="105" y="604"/>
      <point x="105" y="377" type="curve" smooth="yes"/>
      <point x="105" y="99"/>
      <point x="317" y="-34"/>
      <point x="596" y="-34" type="curve" smooth="yes"/>
      <point x="726" y="-34"/>
      <point x="836" y="-1"/>
      <point x="921" y="50" type="curve"/>
      <point x="895" y="99" type="line"/>
      <point x="892" y="-80"/>
      <point x="834" y="-381"/>
      <point x="564" y="-381" type="curve" smooth="yes"/>
      <point x="454" y="-381"/>
      <point x="449" y="-346"/>
      <point x="449" y="-322" type="curve" smooth="yes"/>
      <point x="449" y="-286"/>
      <point x="475" y="-267"/>
      <point x="501" y="-267" type="curve" smooth="yes"/>
      <point x="531" y="-267"/>
      <point x="549" y="-293"/>
      <point x="549" y="-318" type="curve" smooth="yes"/>
      <point x="549" y="-346"/>
      <point x="527" y="-373"/>
      <point x="491" y="-373" type="curve"/>
      <point x="545" y="-424" type="line"/>
      <point x="666" y="-379"/>
      <point x="716" y="-311"/>
      <point x="716" y="-267" type="curve" smooth="yes"/>
      <point x="716" y="-192"/>
      <point x="622" y="-172"/>
      <point x="561" y="-172" type="curve" smooth="yes"/>
      <point x="378" y="-172"/>
      <point x="279" y="-276"/>
      <point x="279" y="-356" type="curve" smooth="yes"/>
      <point x="279" y="-401"/>
      <point x="319" y="-476"/>
      <point x="477" y="-476" type="curve" smooth="yes"/>
      <point x="960" y="-476"/>
      <point x="1113" y="-115"/>
    </contour>
    <contour>
      <point x="584" y="107" type="curve"/>
      <point x="459" y="-31"/>
      <point x="379" y="-87"/>
      <point x="285" y="-176" type="curve"/>
      <point x="328" y="-218" type="line"/>
      <point x="419" y="-149"/>
      <point x="462" y="-113"/>
      <point x="583" y="-21" type="curve"/>
      <point x="505" y="-6" type="line"/>
      <point x="568" y="-99"/>
      <point x="645" y="-160"/>
      <point x="742" y="-221" type="curve"/>
      <point x="778" y="-191"/>
      <point x="797" y="-141"/>
      <point x="809" y="-80" type="curve"/>
      <point x="745" y="-33"/>
      <point x="689" y="4"/>
      <point x="655" y="73" type="curve"/>
      <point x="638" y="86"/>
      <point x="616" y="102"/>
    </contour>
  </outline>
</glyph>
<glyph name="gha_subra_ukar-limb" format="2">
  <advance width="1084"/>
  <anchor x="500" y="1050" name="K"/>
  <outline>
    <contour>
      <point x="459" y="107" type="curve"/>
      <point x="334" y="-31"/>
      <point x="254" y="-87"/>
      <point x="160" y="-176" type="curve"/>
      <point x="203" y="-218" type="line"/>
      <point x="294" y="-149"/>
      <point x="337" y="-113"/>
      <point x="458" y="-21" type="curve"/>
      <point x="380" y="-6" type="line"/>
      <point x="443" y="-99"/>
      <point x="520" y="-160"/>
      <point x="617" y="-221" type="curve"/>
      <point x="653" y="-191"/>
      <point x="672" y="-141"/>
      <point x="684" y="-80" type="curve"/>
      <point x="620" y="-33"/>
      <point x="564" y="4"/>
      <point x="530" y="73" type="curve"/>
      <point x="513" y="86"/>
      <point x="491" y="102"/>
    </contour>
    <contour>
      <point x="171" y="483" type="curve" smooth="yes"/>
      <point x="173" y="272"/>
      <point x="288" y="214"/>
      <point x="403" y="214" type="curve" smooth="yes"/>
      <point x="637" y="214"/>
      <point x="745" y="329"/>
      <point x="840" y="416" type="curve"/>
      <point x="819" y="566" type="line"/>
      <point x="773" y="489"/>
      <point x="645" y="384"/>
      <point x="529" y="384" type="curve" smooth="yes"/>
      <point x="446" y="384"/>
      <point x="401" y="436"/>
      <point x="400" y="533" type="curve"/>
      <point x="400" y="632"/>
      <point x="405" y="891"/>
      <point x="405" y="904" type="curve"/>
      <point x="178" y="904" type="line"/>
      <point x="174" y="880"/>
      <point x="169" y="624"/>
    </contour>
    <contour>
      <point x="1004" y="97" type="curve"/>
      <point x="990" y="345"/>
      <point x="989" y="577"/>
      <point x="1000" y="920" type="curve"/>
      <point x="965" y="970" type="line"/>
      <point x="139" y="970" type="line"/>
      <point x="110" y="949"/>
      <point x="23" y="865"/>
      <point x="0" y="835" type="curve"/>
      <point x="39" y="785" type="line"/>
      <point x="752" y="785" type="line"/>
      <point x="750" y="501"/>
      <point x="751" y="271"/>
      <point x="751" y="7" type="curve" smooth="yes"/>
      <point x="751" y="-153"/>
      <point x="709" y="-381"/>
      <point x="439" y="-381" type="curve" smooth="yes"/>
      <point x="329" y="-381"/>
      <point x="324" y="-346"/>
      <point x="324" y="-322" type="curve" smooth="yes"/>
      <point x="324" y="-286"/>
      <point x="350" y="-267"/>
      <point x="376" y="-267" type="curve" smooth="yes"/>
      <point x="406" y="-267"/>
      <point x="424" y="-293"/>
      <point x="424" y="-318" type="curve" smooth="yes"/>
      <point x="424" y="-346"/>
      <point x="402" y="-373"/>
      <point x="366" y="-373" type="curve"/>
      <point x="420" y="-424" type="line"/>
      <point x="541" y="-379"/>
      <point x="591" y="-311"/>
      <point x="591" y="-267" type="curve" smooth="yes"/>
      <point x="591" y="-192"/>
      <point x="497" y="-172"/>
      <point x="436" y="-172" type="curve" smooth="yes"/>
      <point x="253" y="-172"/>
      <point x="154" y="-276"/>
      <point x="154" y="-356" type="curve" smooth="yes"/>
      <point x="154" y="-401"/>
      <point x="194" y="-476"/>
      <point x="352" y="-476" type="curve" smooth="yes"/>
      <point x="857" y="-476"/>
      <point x="1004" y="-163"/>
    </contour>
  </outline>
</glyph>
<glyph name="ha_ukar-limb" format="2">
  <advance width="1087"/>
  <anchor x="601" y="1050" name="K"/>
  <outline>
    <contour>
      <point x="821" y="785" type="line"/>
      <point x="838" y="824"/>
      <point x="921" y="897"/>
      <point x="990" y="920" type="curve"/>
      <point x="954" y="970" type="line"/>
      <point x="473" y="970" type="line"/>
      <point x="443" y="949"/>
      <point x="437" y="912"/>
      <point x="414" y="882" type="curve"/>
      <point x="320" y="785" type="line"/>
    </contour>
    <contour>
      <point x="1047" y="396" type="curve"/>
      <point x="1015" y="436" type="line"/>
      <point x="924" y="466"/>
      <point x="726" y="527"/>
      <point x="605" y="576" type="curve"/>
      <point x="608" y="530" type="line"/>
      <point x="709" y="629"/>
      <point x="891" y="783"/>
      <point x="990" y="920" type="curve"/>
      <point x="857" y="952" type="line"/>
      <point x="731" y="811"/>
      <point x="600" y="691"/>
      <point x="399" y="505" type="curve"/>
      <point x="452" y="424" type="line"/>
      <point x="538" y="379"/>
      <point x="752" y="315"/>
      <point x="902" y="272" type="curve"/>
      <point x="950" y="295"/>
      <point x="1032" y="363"/>
    </contour>
    <contour>
      <point x="848" y="46" type="curve"/>
      <point x="803" y="62" type="line"/>
      <point x="806" y="-228"/>
      <point x="744" y="-359"/>
      <point x="543" y="-359" type="curve" smooth="yes"/>
      <point x="452" y="-359"/>
      <point x="411" y="-321"/>
      <point x="411" y="-272" type="curve" smooth="yes"/>
      <point x="411" y="-232"/>
      <point x="445" y="-205"/>
      <point x="472" y="-205" type="curve" smooth="yes"/>
      <point x="503" y="-205"/>
      <point x="524" y="-225"/>
      <point x="524" y="-266" type="curve" smooth="yes"/>
      <point x="524" y="-307"/>
      <point x="498" y="-333"/>
      <point x="465" y="-333" type="curve" smooth="yes"/>
      <point x="454" y="-333"/>
      <point x="442" y="-330"/>
      <point x="431" y="-324" type="curve"/>
      <point x="466" y="-360"/>
      <point x="472" y="-378"/>
      <point x="501" y="-399" type="curve"/>
      <point x="572" y="-370"/>
      <point x="700" y="-299"/>
      <point x="700" y="-202" type="curve" smooth="yes"/>
      <point x="700" y="-139"/>
      <point x="653" y="-90"/>
      <point x="572" y="-90" type="curve" smooth="yes"/>
      <point x="404" y="-90"/>
      <point x="250" y="-224"/>
      <point x="250" y="-334" type="curve" smooth="yes"/>
      <point x="250" y="-420"/>
      <point x="317" y="-476"/>
      <point x="457" y="-476" type="curve" smooth="yes"/>
      <point x="878" y="-476"/>
      <point x="1036" y="-113"/>
      <point x="1044" y="198" type="curve"/>
      <point x="1003" y="264" type="line"/>
      <point x="885" y="177"/>
      <point x="751" y="133"/>
      <point x="621" y="133" type="curve" smooth="yes"/>
      <point x="425" y="133"/>
      <point x="272" y="269"/>
      <point x="272" y="520" type="curve" smooth="yes"/>
      <point x="272" y="788"/>
      <point x="460" y="914"/>
      <point x="631" y="958" type="curve"/>
      <point x="473" y="970" type="line"/>
      <point x="267" y="901"/>
      <point x="50" y="699"/>
      <point x="51" y="415" type="curve" smooth="yes"/>
      <point x="52" y="138"/>
      <point x="274" y="-32"/>
      <point x="541" y="-32" type="curve" smooth="yes"/>
      <point x="654" y="-32"/>
      <point x="753" y="-7"/>
    </contour>
  </outline>
</glyph>
<glyph name="jha_ukar-limb" format="2">
  <advance width="879"/>
  <anchor x="454" y="1050" name="K"/>
  <outline>
    <contour>
      <point x="854" y="920" type="curve"/>
      <point x="818" y="970" type="line"/>
      <point x="453" y="970" type="line" smooth="yes"/>
      <point x="347" y="970"/>
      <point x="54" y="822"/>
      <point x="54" y="638" type="curve" smooth="yes"/>
      <point x="54" y="518"/>
      <point x="161" y="416"/>
      <point x="369" y="416" type="curve" smooth="yes"/>
      <point x="443" y="416"/>
      <point x="618" y="448"/>
      <point x="723" y="530" type="curve"/>
      <point x="681" y="600" type="line"/>
      <point x="618" y="584"/>
      <point x="576" y="566"/>
      <point x="464" y="566" type="curve" smooth="yes"/>
      <point x="368" y="566"/>
      <point x="273" y="610"/>
      <point x="275" y="697" type="curve" smooth="yes"/>
      <point x="277" y="780"/>
      <point x="348" y="785"/>
      <point x="393" y="785" type="curve" smooth="yes"/>
      <point x="685" y="785" type="line"/>
      <point x="734" y="810"/>
      <point x="818" y="884"/>
    </contour>
    <contour>
      <point x="879" y="139" type="curve"/>
      <point x="863" y="156"/>
      <point x="736" y="125"/>
      <point x="692" y="120" type="curve"/>
      <point x="583" y="-9"/>
      <point x="635" y="28"/>
      <point x="463" y="-91" type="curve"/>
      <point x="470" y="-110"/>
      <point x="508" y="-150"/>
      <point x="528" y="-157" type="curve"/>
      <point x="700" y="-49"/>
      <point x="726" y="-51"/>
    </contour>
    <contour>
      <point x="721" y="47" type="curve"/>
      <point x="683" y="75" type="line"/>
      <point x="683" y="-125"/>
      <point x="545" y="-359"/>
      <point x="334" y="-359" type="curve" smooth="yes"/>
      <point x="243" y="-359"/>
      <point x="202" y="-321"/>
      <point x="202" y="-272" type="curve" smooth="yes"/>
      <point x="202" y="-232"/>
      <point x="236" y="-205"/>
      <point x="263" y="-205" type="curve" smooth="yes"/>
      <point x="294" y="-205"/>
      <point x="315" y="-225"/>
      <point x="315" y="-266" type="curve" smooth="yes"/>
      <point x="315" y="-307"/>
      <point x="289" y="-333"/>
      <point x="256" y="-333" type="curve" smooth="yes"/>
      <point x="245" y="-333"/>
      <point x="233" y="-330"/>
      <point x="222" y="-324" type="curve"/>
      <point x="257" y="-360"/>
      <point x="263" y="-378"/>
      <point x="292" y="-399" type="curve"/>
      <point x="363" y="-370"/>
      <point x="491" y="-299"/>
      <point x="491" y="-202" type="curve" smooth="yes"/>
      <point x="491" y="-139"/>
      <point x="444" y="-90"/>
      <point x="363" y="-90" type="curve" smooth="yes"/>
      <point x="195" y="-90"/>
      <point x="41" y="-224"/>
      <point x="41" y="-334" type="curve" smooth="yes"/>
      <point x="41" y="-420"/>
      <point x="108" y="-476"/>
      <point x="248" y="-476" type="curve" smooth="yes"/>
      <point x="669" y="-476"/>
      <point x="879" y="-79"/>
      <point x="879" y="139" type="curve"/>
      <point x="831" y="217" type="line"/>
      <point x="778" y="193"/>
      <point x="651" y="132"/>
      <point x="498" y="132" type="curve" smooth="yes"/>
      <point x="373" y="132"/>
      <point x="290" y="185"/>
      <point x="289" y="278" type="curve" smooth="yes"/>
      <point x="287" y="392"/>
      <point x="396" y="433"/>
      <point x="449" y="466" type="curve"/>
      <point x="279" y="461" type="line"/>
      <point x="139" y="397"/>
      <point x="54" y="293"/>
      <point x="54" y="197" type="curve" smooth="yes"/>
      <point x="54" y="67"/>
      <point x="162" y="-34"/>
      <point x="416" y="-34" type="curve" smooth="yes"/>
      <point x="492" y="-34"/>
      <point x="615" y="0"/>
    </contour>
  </outline>
</glyph>
<glyph name="la_subra_ukar-limb" format="2">
  <advance width="1166"/>
  <anchor x="585" y="1050" name="K"/>
  <outline>
    <contour>
      <point x="1086" y="97" type="curve"/>
      <point x="1072" y="345"/>
      <point x="1070" y="616"/>
      <point x="1081" y="960" type="curve"/>
      <point x="1046" y="1000" type="line"/>
      <point x="892" y="907"/>
      <point x="757" y="854"/>
      <point x="571" y="854" type="curve" smooth="yes"/>
      <point x="419" y="854"/>
      <point x="327" y="901"/>
      <point x="211" y="1000" type="curve"/>
      <point x="182" y="979"/>
      <point x="89" y="920"/>
      <point x="66" y="889" type="curve"/>
      <point x="56" y="838"/>
      <point x="50" y="781"/>
      <point x="50" y="730" type="curve" smooth="yes"/>
      <point x="50" y="396"/>
      <point x="283" y="320"/>
      <point x="401" y="320" type="curve" smooth="yes"/>
      <point x="576" y="320"/>
      <point x="700" y="403"/>
      <point x="778" y="506" type="curve"/>
      <point x="778" y="517"/>
      <point x="763" y="545"/>
      <point x="755" y="559" type="curve"/>
      <point x="700" y="524"/>
      <point x="612" y="497"/>
      <point x="511" y="497" type="curve" smooth="yes"/>
      <point x="278" y="497"/>
      <point x="203" y="662"/>
      <point x="251" y="815" type="curve"/>
      <point x="216" y="739" type="line"/>
      <point x="258" y="705"/>
      <point x="365" y="662"/>
      <point x="511" y="662" type="curve" smooth="yes"/>
      <point x="660" y="662"/>
      <point x="771" y="701"/>
      <point x="920" y="824" type="curve"/>
      <point x="833" y="875" type="line"/>
      <point x="831" y="578"/>
      <point x="823" y="310"/>
      <point x="836" y="33" type="curve"/>
      <point x="829" y="-153"/>
      <point x="793" y="-381"/>
      <point x="523" y="-381" type="curve" smooth="yes"/>
      <point x="413" y="-381"/>
      <point x="408" y="-346"/>
      <point x="408" y="-322" type="curve" smooth="yes"/>
      <point x="408" y="-286"/>
      <point x="434" y="-267"/>
      <point x="460" y="-267" type="curve" smooth="yes"/>
      <point x="490" y="-267"/>
      <point x="508" y="-293"/>
      <point x="508" y="-318" type="curve" smooth="yes"/>
      <point x="508" y="-346"/>
      <point x="486" y="-373"/>
      <point x="450" y="-373" type="curve"/>
      <point x="504" y="-424" type="line"/>
      <point x="625" y="-379"/>
      <point x="675" y="-311"/>
      <point x="675" y="-267" type="curve" smooth="yes"/>
      <point x="675" y="-192"/>
      <point x="581" y="-172"/>
      <point x="520" y="-172" type="curve" smooth="yes"/>
      <point x="337" y="-172"/>
      <point x="238" y="-276"/>
      <point x="238" y="-356" type="curve" smooth="yes"/>
      <point x="238" y="-401"/>
      <point x="278" y="-476"/>
      <point x="436" y="-476" type="curve" smooth="yes"/>
      <point x="941" y="-476"/>
      <point x="1086" y="-163"/>
    </contour>
    <contour>
      <point x="543" y="107" type="curve"/>
      <point x="418" y="-31"/>
      <point x="338" y="-87"/>
      <point x="244" y="-176" type="curve"/>
      <point x="287" y="-218" type="line"/>
      <point x="378" y="-149"/>
      <point x="421" y="-113"/>
      <point x="542" y="-21" type="curve"/>
      <point x="464" y="-6" type="line"/>
      <point x="527" y="-99"/>
      <point x="604" y="-160"/>
      <point x="701" y="-221" type="curve"/>
      <point x="737" y="-191"/>
      <point x="756" y="-141"/>
      <point x="768" y="-80" type="curve"/>
      <point x="704" y="-33"/>
      <point x="648" y="4"/>
      <point x="614" y="73" type="curve"/>
      <point x="597" y="86"/>
      <point x="575" y="102"/>
    </contour>
  </outline>
</glyph>
<glyph name="ma_ukar-limb" format="2">
  <advance width="1147"/>
  <anchor x="560" y="1050" name="K"/>
  <outline>
    <contour>
      <point x="1021" y="970" type="line"/>
      <point x="196" y="970" type="line"/>
      <point x="167" y="949"/>
      <point x="79" y="865"/>
      <point x="56" y="835" type="curve"/>
      <point x="96" y="785" type="line"/>
      <point x="812" y="785" type="line"/>
      <point x="807" y="474"/>
      <point x="801" y="312"/>
      <point x="815" y="146" type="curve"/>
      <point x="982" y="208" type="line"/>
      <point x="800" y="305"/>
      <point x="531" y="392"/>
      <point x="313" y="411" type="curve"/>
      <point x="326" y="332" type="line"/>
      <point x="407" y="479"/>
      <point x="616" y="729"/>
      <point x="809" y="886" type="curve"/>
      <point x="605" y="882" type="line"/>
      <point x="447" y="764"/>
      <point x="152" y="445"/>
      <point x="50" y="277" type="curve"/>
      <point x="86" y="237" type="line"/>
      <point x="254" y="238"/>
      <point x="606" y="134"/>
      <point x="856" y="-3" type="curve"/>
      <point x="810" y="44" type="line"/>
      <point x="813" y="-207"/>
      <point x="751" y="-359"/>
      <point x="550" y="-359" type="curve" smooth="yes"/>
      <point x="459" y="-359"/>
      <point x="418" y="-321"/>
      <point x="418" y="-272" type="curve" smooth="yes"/>
      <point x="418" y="-232"/>
      <point x="452" y="-205"/>
      <point x="479" y="-205" type="curve" smooth="yes"/>
      <point x="510" y="-205"/>
      <point x="531" y="-225"/>
      <point x="531" y="-266" type="curve" smooth="yes"/>
      <point x="531" y="-307"/>
      <point x="505" y="-333"/>
      <point x="472" y="-333" type="curve" smooth="yes"/>
      <point x="461" y="-333"/>
      <point x="449" y="-330"/>
      <point x="438" y="-324" type="curve"/>
      <point x="473" y="-360"/>
      <point x="479" y="-378"/>
      <point x="508" y="-399" type="curve"/>
      <point x="579" y="-370"/>
      <point x="707" y="-299"/>
      <point x="707" y="-202" type="curve" smooth="yes"/>
      <point x="707" y="-139"/>
      <point x="660" y="-90"/>
      <point x="579" y="-90" type="curve" smooth="yes"/>
      <point x="411" y="-90"/>
      <point x="257" y="-224"/>
      <point x="257" y="-334" type="curve" smooth="yes"/>
      <point x="257" y="-420"/>
      <point x="324" y="-476"/>
      <point x="464" y="-476" type="curve" smooth="yes"/>
      <point x="885" y="-476"/>
      <point x="1063" y="-83"/>
      <point x="1063" y="100" type="curve"/>
      <point x="1049" y="318"/>
      <point x="1045" y="577"/>
      <point x="1056" y="920" type="curve"/>
    </contour>
  </outline>
</glyph>
<glyph name="ra_ukar-limb" format="2">
  <advance width="1105"/>
  <anchor x="520" y="1050" name="K"/>
  <outline>
    <contour>
      <point x="181" y="970" type="line"/>
      <point x="130" y="931"/>
      <point x="71" y="870"/>
      <point x="41" y="835" type="curve"/>
      <point x="82" y="785" type="line"/>
      <point x="721" y="785" type="line"/>
      <point x="721" y="849" type="line"/>
      <point x="423" y="625"/>
      <point x="183" y="295"/>
      <point x="40" y="13" type="curve"/>
      <point x="82" y="-34" type="line"/>
      <point x="124" y="-26"/>
      <point x="271" y="15"/>
      <point x="304" y="34" type="curve"/>
      <point x="434" y="359"/>
      <point x="667" y="613"/>
      <point x="1006" y="920" type="curve"/>
      <point x="972" y="970" type="line"/>
    </contour>
    <contour>
      <point x="881" y="-34" type="curve"/>
      <point x="851" y="113" type="line"/>
      <point x="854" y="-117"/>
      <point x="752" y="-359"/>
      <point x="551" y="-359" type="curve" smooth="yes"/>
      <point x="460" y="-359"/>
      <point x="419" y="-321"/>
      <point x="419" y="-272" type="curve" smooth="yes"/>
      <point x="419" y="-232"/>
      <point x="453" y="-205"/>
      <point x="480" y="-205" type="curve" smooth="yes"/>
      <point x="511" y="-205"/>
      <point x="532" y="-225"/>
      <point x="532" y="-266" type="curve" smooth="yes"/>
      <point x="532" y="-307"/>
      <point x="506" y="-333"/>
      <point x="473" y="-333" type="curve" smooth="yes"/>
      <point x="462" y="-333"/>
      <point x="450" y="-330"/>
      <point x="439" y="-324" type="curve"/>
      <point x="474" y="-360"/>
      <point x="480" y="-378"/>
      <point x="509" y="-399" type="curve"/>
      <point x="580" y="-370"/>
      <point x="708" y="-299"/>
      <point x="708" y="-202" type="curve" smooth="yes"/>
      <point x="708" y="-139"/>
      <point x="661" y="-90"/>
      <point x="580" y="-90" type="curve" smooth="yes"/>
      <point x="412" y="-90"/>
      <point x="258" y="-224"/>
      <point x="258" y="-334" type="curve" smooth="yes"/>
      <point x="258" y="-420"/>
      <point x="325" y="-476"/>
      <point x="465" y="-476" type="curve" smooth="yes"/>
      <point x="886" y="-476"/>
      <point x="1084" y="-84"/>
      <point x="1084" y="134" type="curve"/>
      <point x="982" y="228"/>
      <point x="765" y="560"/>
      <point x="658" y="560" type="curve" smooth="yes"/>
      <point x="645" y="560"/>
      <point x="619" y="550"/>
      <point x="608" y="536" type="curve" smooth="yes"/>
      <point x="467" y="364" type="line"/>
      <point x="487" y="384"/>
      <point x="493" y="391"/>
      <point x="515" y="391" type="curve" smooth="yes"/>
      <point x="630" y="391"/>
      <point x="806" y="11"/>
    </contour>
  </outline>
</glyph>
<glyph name="sai-limb.widC" format="2">
  <anchor x="-654" y="-30" name="_L"/>
  <outline>
    <contour>
      <point x="-1140" y="-80" type="line"/>
      <point x="-1179" y="-101"/>
      <point x="-1256" y="-181"/>
      <point x="-1279" y="-215" type="curve"/>
      <point x="-1240" y="-265" type="line"/>
      <point x="-208" y="-265" type="line"/>
      <point x="-147" y="-228"/>
      <point x="-81" y="-171"/>
      <point x="-50" y="-130" type="curve"/>
      <point x="-85" y="-80" type="line"/>
    </contour>
  </outline>
</glyph>
